<svg width="1466" height="1186" viewBox="0 0 1466 1186" fill="none" xmlns="http://www.w3.org/2000/svg">
<mask id="mask0_338:1056" style="mask-type:alpha" maskUnits="userSpaceOnUse" x="0" y="0" width="1466" height="1186">
<rect width="1466" height="1186" fill="#C4C4C4"/>
</mask>
<g mask="url(#mask0_338:1056)">
<rect x="-37" width="1570" height="1094" fill="#F3DCC9"/>
<g opacity="0.5">
<mask id="mask1_338:1056" style="mask-type:alpha" maskUnits="userSpaceOnUse" x="-527" y="460" width="2035" height="715">
<path d="M303.978 990.201C303.978 1076.74 233.822 1146.9 147.28 1146.9C60.7388 1146.9 -9.41699 1076.74 -9.41699 990.201C-9.41699 903.66 60.7388 833.504 147.28 833.504C233.822 833.504 303.978 903.66 303.978 990.201Z" fill="white"/>
<path d="M66.293 967.718C66.293 1054.26 -3.86276 1124.41 -90.4043 1124.41C-176.946 1124.41 -247.102 1054.26 -247.102 967.718C-247.102 881.176 -176.946 811.02 -90.4043 811.02C-3.86276 811.02 66.293 881.176 66.293 967.718Z" fill="white"/>
<path d="M223.22 833.274C223.22 919.816 153.064 989.972 66.5227 989.972C-20.0188 989.972 -90.1746 919.816 -90.1746 833.274C-90.1746 746.733 -20.0188 676.577 66.5227 676.577C153.064 676.577 223.22 746.733 223.22 833.274Z" fill="white"/>
<path d="M661.421 773.165C661.421 859.707 591.266 929.862 504.724 929.862C418.183 929.862 348.027 859.707 348.027 773.165C348.027 686.624 418.183 616.468 504.724 616.468C591.266 616.468 661.421 686.624 661.421 773.165Z" fill="white"/>
<path d="M709.142 694.931C709.142 824.68 603.96 929.862 474.211 929.862C344.462 929.862 239.28 824.68 239.28 694.931C239.28 565.182 344.462 460 474.211 460C603.96 460 709.142 565.182 709.142 694.931Z" fill="white"/>
<path d="M467.328 906.232C467.328 992.773 397.172 1062.93 310.631 1062.93C224.089 1062.93 153.933 992.773 153.933 906.232C153.933 819.69 224.089 749.534 310.631 749.534C397.172 749.534 467.328 819.69 467.328 906.232Z" fill="white"/>
<path d="M865.61 810.791C865.61 897.332 795.454 967.488 708.913 967.488C622.371 967.488 552.215 897.332 552.215 810.791C552.215 724.249 622.371 654.094 708.913 654.094C795.454 654.094 865.61 724.249 865.61 810.791Z" fill="white"/>
<path d="M1140.46 906.232C1140.46 992.773 1070.31 1062.93 983.764 1062.93C897.222 1062.93 827.067 992.773 827.067 906.232C827.067 819.69 897.222 749.534 983.764 749.534C1070.31 749.534 1140.46 819.69 1140.46 906.232Z" fill="white"/>
<path d="M677.481 967.259C677.481 1053.8 607.326 1123.96 520.784 1123.96C434.243 1123.96 364.087 1053.8 364.087 967.259C364.087 880.717 434.243 810.561 520.784 810.561C607.326 810.561 677.481 880.717 677.481 967.259Z" fill="white"/>
<path d="M946.368 990.201C946.368 1076.74 876.212 1146.9 789.67 1146.9C703.129 1146.9 632.973 1076.74 632.973 990.201C632.973 903.66 703.129 833.504 789.67 833.504C876.212 833.504 946.368 903.66 946.368 990.201Z" fill="white"/>
<path d="M1375.85 832.816C1375.85 919.357 1305.7 989.513 1219.15 989.513C1132.61 989.513 1062.46 919.357 1062.46 832.816C1062.46 746.274 1132.61 676.118 1219.15 676.118C1305.7 676.118 1375.85 746.274 1375.85 832.816Z" fill="white"/>
<path d="M1508 1014.98C1508 1101.52 1437.84 1171.68 1351.3 1171.68C1264.76 1171.68 1194.61 1101.52 1194.61 1014.98C1194.61 928.438 1264.76 858.282 1351.3 858.282C1437.84 858.282 1508 928.438 1508 1014.98Z" fill="white"/>
<path d="M1179 1017.73C1179 1104.27 1108.85 1174.43 1022.31 1174.43C935.766 1174.43 865.61 1104.27 865.61 1017.73C865.61 931.191 935.766 861.035 1022.31 861.035C1108.85 861.035 1179 931.191 1179 1017.73Z" fill="white"/>
<path d="M-419.629 990.431H1390.08V1174.43H-419.629V990.431Z" fill="white"/>
</mask>
<g mask="url(#mask1_338:1056)">
<rect x="-527" y="452.658" width="2042.8" height="694.24" fill="url(#paint0_linear_338:1056)"/>
</g>
</g>
<path d="M1291.11 743.887C1296.06 737.486 1306.05 736.98 1310.76 743.702L1313.92 1079.13L1294.26 1079.31L1291.11 743.887Z" fill="#E0A57F"/>
<path fill-rule="evenodd" clip-rule="evenodd" d="M1292.42 883.61L1312.07 883.425L1312.27 903.996C1304.7 902.62 1294.75 902.436 1294.75 902.436L1292.61 903.819L1292.42 883.61ZM1293.16 961.862L1294.26 1079.31L1313.92 1079.13L1312.38 915.864C1303.88 924.81 1297.82 941.218 1293.16 961.862Z" fill="#E8B798"/>
<path d="M1279.64 794.405L1343.05 787.437L1343.04 757.027L1334.64 752.99L1141.99 761.997L1089 795.542L1089.94 803.929L1147.92 835.3L1343.05 826.29V790.494L1279.64 794.405Z" fill="#C78C67"/>
<path d="M1343.05 790.305L1333.94 784.647L1331.18 789.381L1335.48 793.353L1343.05 790.305Z" fill="#C78C67"/>
<path d="M1136.49 715.633V715L1137.08 715.317L1137.28 715.791L1136.49 715.633Z" fill="#C78C67"/>
<path d="M1274.53 788.371L1333.56 781.634V752.99L1141.57 761.942L1089 795.537L1147.05 826.594L1333.56 818.62V784.484L1274.53 788.371Z" fill="#E8B798"/>
<mask id="mask2_338:1056" style="mask-type:alpha" maskUnits="userSpaceOnUse" x="1089" y="755" width="245" height="72">
<path d="M1274.53 788.42L1333.56 781.714V755.364L1141.57 762.111L1089 795.554L1147.28 826.594L1333.56 817.578V784.551L1274.53 788.42Z" fill="#ECC2A7"/>
</mask>
<g mask="url(#mask2_338:1056)">
<path d="M1246.66 766.606C1310.49 775.51 1333.56 766.606 1333.56 766.606V772.812C1333.56 772.812 1322.12 775.15 1303.3 775.15C1284.48 775.15 1128.57 764.627 1128.57 764.627V755.364C1128.57 755.364 1182.82 757.702 1246.66 766.606Z" fill="#E0A57F"/>
<path d="M1242.85 778.812C1297.79 782.907 1343.05 778.813 1343.05 778.813V785.092C1343.05 785.092 1331.1 787.458 1311.45 787.458C1291.79 787.458 1097.71 790.188 1097.71 790.188L1102.39 781.694C1102.39 781.694 1187.92 774.718 1242.85 778.812Z" fill="#E0A57F"/>
<path d="M1177.16 793.922C1151.74 789.723 1115.91 810.141 1115.91 810.141L1119.98 814.722C1119.98 814.722 1178.92 795.958 1234.76 802.957C1290.6 809.955 1338.31 813.137 1338.31 813.137V802.957C1338.31 802.957 1202.59 798.121 1177.16 793.922Z" fill="#E0A57F"/>
<path d="M1183.23 811.904C1155.98 813.552 1130.95 823.437 1130.95 823.437L1135.02 825.011C1135.02 825.011 1184.99 812.603 1240.92 815.009C1296.85 817.414 1344.64 818.507 1344.64 818.507V815.009C1344.64 815.009 1210.47 810.256 1183.23 811.904Z" fill="#E0A57F"/>
</g>
<g filter="url(#filter0_i_338:1056)">
<path d="M1157.77 809.497L1156.43 778.909L1173.24 778.169C1176.35 778.032 1178.74 778.657 1180.42 780.042C1182.09 781.428 1182.99 783.482 1183.11 786.206C1183.18 787.789 1182.94 789.132 1182.39 790.235C1181.86 791.337 1181.14 792.225 1180.22 792.9C1181.54 793.35 1182.6 794.049 1183.41 794.997C1184.24 795.912 1184.7 797.319 1184.78 799.219C1184.91 802.101 1184.12 804.372 1182.42 806.033C1180.71 807.695 1178.23 808.597 1174.97 808.741L1157.77 809.497ZM1165.56 790.737L1171.36 790.482C1173.54 790.386 1174.59 789.357 1174.51 787.393C1174.46 786.412 1174.16 785.679 1173.6 785.197C1173.07 784.712 1172.16 784.499 1170.86 784.556L1165.3 784.8L1165.56 790.737ZM1166.1 802.897L1172.27 802.625C1173.48 802.572 1174.35 802.28 1174.9 801.748C1175.45 801.216 1175.69 800.365 1175.64 799.193C1175.6 798.211 1175.28 797.48 1174.69 796.998C1174.1 796.517 1173.14 796.305 1171.81 796.364L1165.82 796.627L1166.1 802.897Z" fill="#743A15"/>
<path d="M1188.53 808.144L1187.18 777.556L1210.36 776.536L1210.66 783.375L1196.41 784.002L1196.63 788.99L1209.12 788.44L1209.43 795.375L1196.94 795.924L1197.16 800.912L1211.41 800.285L1211.71 807.124L1188.53 808.144Z" fill="#743A15"/>
<path d="M1221.25 806.704L1220.19 782.766L1211.6 783.144L1211.3 776.494L1237.43 775.345L1237.72 781.995L1229.12 782.373L1230.18 806.312L1221.25 806.704Z" fill="#743A15"/>
<path d="M1241.13 805.83L1239.78 775.241L1248.71 774.848L1250.06 805.437L1241.13 805.83Z" fill="#743A15"/>
<path d="M1264.39 805.282C1262.33 805.373 1260.38 805.3 1258.53 805.064C1256.67 804.797 1255.09 804.391 1253.76 803.846L1253.44 796.484C1254.89 797.086 1256.5 797.555 1258.26 797.89C1260.02 798.225 1261.66 798.359 1263.18 798.292C1264.76 798.222 1265.94 798.044 1266.72 797.755C1267.53 797.434 1267.92 796.799 1267.88 795.849C1267.85 795.184 1267.59 794.672 1267.1 794.313C1266.64 793.952 1265.91 793.635 1264.91 793.362C1263.95 793.087 1262.68 792.746 1261.11 792.339C1259.02 791.765 1257.36 791.108 1256.12 790.37C1254.88 789.631 1253.97 788.704 1253.38 787.587C1252.82 786.47 1252.51 785.088 1252.44 783.441C1252.3 780.433 1253.26 778.106 1255.32 776.461C1257.4 774.783 1260.55 773.852 1264.76 773.666C1266.44 773.593 1268.17 773.659 1269.96 773.866C1271.77 774.072 1273.24 774.324 1274.37 774.624L1274.69 782.033C1273.18 781.497 1271.73 781.132 1270.36 780.939C1268.99 780.746 1267.7 780.675 1266.5 780.728C1265.1 780.79 1263.92 780.953 1262.95 781.218C1261.98 781.482 1261.51 782.074 1261.55 782.992C1261.59 783.784 1262.02 784.352 1262.86 784.695C1263.74 785.006 1265.26 785.399 1267.44 785.874C1269.97 786.429 1271.9 787.153 1273.24 788.046C1274.62 788.937 1275.57 790.006 1276.1 791.251C1276.63 792.466 1276.93 793.864 1277 795.447C1277.12 798.234 1276.14 800.53 1274.06 802.334C1271.98 804.107 1268.76 805.09 1264.39 805.282Z" fill="#743A15"/>
</g>
<g filter="url(#filter1_d_338:1056)">
<path d="M1292.54 787.824C1292.59 791.807 1295.98 794.994 1300.11 794.943C1304.24 794.891 1307.55 791.619 1307.5 787.636C1307.45 783.652 1304.06 780.465 1299.93 780.517C1295.8 780.569 1292.49 783.84 1292.54 787.824Z" fill="#C4C4C4"/>
<path fill-rule="evenodd" clip-rule="evenodd" d="M1300.01 787.116L1296.13 783.33L1295.26 784.223L1299.14 788.008L1295.36 791.89L1296.25 792.76L1300.04 788.879L1303.92 792.664L1304.79 791.771L1300.91 787.986L1304.69 784.104L1303.8 783.234L1300.01 787.116Z" fill="#8D8B8B"/>
</g>
<path d="M1286.67 886.845L1343.05 880.809L1343.05 849.943L1334.74 845.985L1162.56 852.988L1114.29 886.133L1115.04 894.557L1167.13 926.6L1343.05 919.619L1343.05 883.579L1286.67 886.845Z" fill="#C78C67"/>
<path d="M1343.05 883.579L1334.74 878.435L1333.28 882.444L1336.84 886.722L1343.05 883.579Z" fill="#C78C67"/>
<path d="M1158.84 806.135L1158.85 805.413L1159.1 805.777L1159.18 806.319L1158.84 806.135Z" fill="#C78C67"/>
<path d="M1282.81 880.753L1334.74 875.269L1334.74 845.985L1162.38 852.932L1114.29 886.133L1166.66 917.867L1334.74 912.081L1334.74 878.435L1282.81 880.753Z" fill="#E8B798"/>
<mask id="mask3_338:1056" style="mask-type:alpha" maskUnits="userSpaceOnUse" x="1114" y="845" width="221" height="73">
<path d="M1282.81 880.753L1334.74 875.269L1334.74 845.985L1162.38 852.932L1114.29 886.133L1166.87 917.995L1334.74 912.071L1334.74 878.435L1282.81 880.753Z" fill="#ECC2A7"/>
</mask>
<g mask="url(#mask3_338:1056)">
<path d="M1257.55 858.487C1315.39 868.086 1336.41 859.335 1336.41 859.335L1336.34 865.591C1336.34 865.591 1325.94 867.836 1308.86 867.653C1291.78 867.469 1150.42 855.34 1150.42 855.34L1150.52 846.001C1150.52 846.001 1199.72 848.888 1257.55 858.487Z" fill="#E0A57F"/>
<path d="M1253.71 869.63C1303.27 874.37 1344.18 870.603 1344.18 870.603L1344.11 877.055C1344.11 877.055 1333.3 879.37 1315.55 879.179C1297.8 878.988 1122.53 879.909 1122.53 879.909L1126.85 871.228C1126.85 871.228 1204.15 864.89 1253.71 869.63Z" fill="#E0A57F"/>
<path d="M1194.66 885.692C1171.76 881.28 1139.21 901.183 1139.21 901.183L1142.84 905.766C1142.84 905.766 1196.22 887.728 1246.53 895.211C1296.84 902.693 1339.85 906.311 1339.85 906.311L1339.96 896.215C1339.96 896.215 1217.55 890.103 1194.66 885.692Z" fill="#E0A57F"/>
<path d="M1199.54 902.846C1174.98 904.241 1152.32 913.946 1152.32 913.946L1155.97 915.57C1155.97 915.57 1201.12 903.568 1251.48 906.53C1301.84 909.492 1344.88 911.055 1344.88 911.055L1344.91 907.535C1344.91 907.535 1224.1 901.452 1199.54 902.846Z" fill="#E0A57F"/>
</g>
<g filter="url(#filter2_i_338:1056)">
<path d="M1179.36 900.489L1179.19 896.404C1180.01 894.689 1181.03 893.141 1182.24 891.759C1183.45 890.377 1184.81 888.957 1186.3 887.501C1187.55 886.276 1188.56 885.267 1189.32 884.475C1190.11 883.681 1190.68 882.944 1191.04 882.263C1191.42 881.55 1191.59 880.75 1191.56 879.863C1191.46 877.614 1189.95 876.55 1187 876.671C1185.64 876.726 1184.31 876.939 1183.03 877.309C1181.78 877.677 1180.59 878.122 1179.47 878.644L1179.16 871.043C1180.43 870.484 1181.94 870.026 1183.67 869.669C1185.4 869.281 1187.15 869.051 1188.92 868.979C1192.72 868.824 1195.59 869.61 1197.54 871.339C1199.48 873.036 1200.51 875.389 1200.63 878.398C1200.69 879.823 1200.57 881.065 1200.26 882.124C1199.99 883.151 1199.52 884.106 1198.86 884.989C1198.19 885.873 1197.33 886.828 1196.26 887.855C1195.31 888.75 1194.38 889.645 1193.47 890.539C1192.55 891.433 1191.83 892.303 1191.29 893.15L1201.5 892.732L1201.78 899.573L1179.36 900.489Z" fill="#743A15"/>
<path d="M1218.83 899.352C1215.32 899.496 1212.46 899.01 1210.25 897.894C1208.08 896.746 1206.46 895.02 1205.38 892.717C1204.3 890.413 1203.69 887.567 1203.55 884.179C1203.42 880.79 1203.79 877.904 1204.68 875.52C1205.56 873.137 1207.04 871.3 1209.11 870.01C1211.22 868.687 1214.03 867.953 1217.54 867.81C1222.8 867.595 1226.61 868.803 1228.97 871.435C1231.33 874.035 1232.61 877.884 1232.82 882.983C1233.02 888.05 1232.06 891.991 1229.92 894.807C1227.78 897.622 1224.09 899.137 1218.83 899.352ZM1218.52 891.752C1220.58 891.667 1221.98 890.928 1222.71 889.534C1223.48 888.107 1223.81 886.048 1223.7 883.356C1223.59 880.632 1223.09 878.606 1222.21 877.278C1221.36 875.949 1219.91 875.326 1217.85 875.41C1215.79 875.494 1214.38 876.234 1213.61 877.629C1212.88 879.024 1212.56 881.082 1212.68 883.806C1212.79 886.498 1213.26 888.524 1214.11 889.885C1214.99 891.214 1216.46 891.836 1218.52 891.752Z" fill="#743A15"/>
<path d="M1235.82 898.182L1235.65 894.097C1236.47 892.382 1237.48 890.834 1238.7 889.452C1239.91 888.07 1241.26 886.651 1242.76 885.194C1244.01 883.969 1245.01 882.961 1245.77 882.168C1246.57 881.374 1247.14 880.637 1247.49 879.957C1247.88 879.243 1248.05 878.443 1248.01 877.556C1247.92 875.308 1246.4 874.244 1243.46 874.364C1242.1 874.42 1240.77 874.632 1239.49 875.002C1238.23 875.371 1237.05 875.816 1235.92 876.337L1235.61 868.737C1236.89 868.177 1238.4 867.719 1240.13 867.363C1241.86 866.975 1243.61 866.745 1245.38 866.672C1249.18 866.517 1252.05 867.304 1253.99 869.033C1255.93 870.73 1256.97 873.083 1257.09 876.091C1257.15 877.516 1257.02 878.758 1256.72 879.818C1256.44 880.844 1255.97 881.799 1255.31 882.683C1254.65 883.566 1253.79 884.521 1252.72 885.548C1251.77 886.444 1250.84 887.338 1249.92 888.232C1249.01 889.126 1248.28 889.996 1247.75 890.843L1257.96 890.426L1258.24 897.266L1235.82 898.182Z" fill="#743A15"/>
<path d="M1265.72 896.961L1264.81 874.634L1259.76 875.601L1259.45 868.143L1273.38 865.528L1274.65 896.596L1265.72 896.961Z" fill="#743A15"/>
</g>
<g filter="url(#filter3_d_338:1056)">
<path d="M1293.79 879.46C1293.84 883.444 1297.23 886.631 1301.36 886.579C1305.49 886.527 1308.8 883.256 1308.75 879.272C1308.7 875.289 1305.31 872.102 1301.18 872.154C1297.05 872.205 1293.74 875.477 1293.79 879.46Z" fill="#C4C4C4"/>
<path fill-rule="evenodd" clip-rule="evenodd" d="M1301.26 878.752L1297.38 874.967L1296.51 875.859L1300.39 879.644L1296.61 883.526L1297.5 884.396L1301.28 880.515L1305.17 884.3L1306.04 883.408L1302.15 879.622L1305.94 875.741L1305.05 874.87L1301.26 878.752Z" fill="#8D8B8B"/>
</g>
<mask id="mask4_338:1056" style="mask-type:alpha" maskUnits="userSpaceOnUse" x="0" y="708" width="1472" height="478">
<rect y="708" width="1472" height="478" fill="#C4C4C4"/>
</mask>
<g mask="url(#mask4_338:1056)">
<rect x="348" y="1160.14" width="1313" height="148.037" fill="#513320"/>
<mask id="mask5_338:1056" style="mask-type:alpha" maskUnits="userSpaceOnUse" x="-160" y="690" width="1855" height="522">
<rect width="1838.82" height="470.031" transform="matrix(-0.999623 0.0274416 0.0344975 0.999405 1678.46 690.907)" fill="#C4C4C4"/>
</mask>
<g mask="url(#mask5_338:1056)">
<rect width="1057.14" height="67.1348" transform="matrix(-0.999623 0.0274416 0.0344975 0.999405 939.505 1134.01)" fill="#69442C"/>
<path fill-rule="evenodd" clip-rule="evenodd" d="M3117.71 1021.48L2848.28 1037.66C2578.85 1053.85 2040 1086.22 1499.63 1074.68C959.258 1063.15 417.372 1007.7 146.428 979.979L-124.515 952.257L-117.239 1163.02L152.491 1155.62C422.222 1148.21 961.683 1133.4 1501.14 1118.59C2040.61 1103.78 2580.07 1088.98 2849.8 1081.57L3119.53 1074.17L3117.71 1021.48Z" fill="#8C5A3A"/>
<g style="mix-blend-mode:darken">
<path fill-rule="evenodd" clip-rule="evenodd" d="M3082.85 1061.49L2813.8 1079.06C2544.75 1096.64 2006.64 1131.79 1466.78 1116.04C926.914 1100.29 385.294 1033.65 114.484 1000.32L-156.326 966.999L-147.892 1211.31L121.512 1203.92C390.916 1196.52 929.725 1181.73 1468.53 1166.94C2007.34 1152.15 2546.15 1137.36 2815.56 1129.96L3084.96 1122.56L3082.85 1061.49Z" fill="#69442C"/>
</g>
<g style="mix-blend-mode:darken">
<path fill-rule="evenodd" clip-rule="evenodd" d="M2994.84 1096.03L2725.78 1113.6C2456.73 1131.18 1918.62 1166.33 1378.76 1150.58C838.897 1134.83 297.277 1068.19 26.4671 1034.86L-244.343 1001.54L-235.91 1245.85L33.4947 1238.46C302.899 1231.06 841.708 1216.27 1380.52 1201.48C1919.33 1186.69 2458.13 1171.9 2727.54 1164.5L2996.94 1157.11L2994.84 1096.03Z" fill="#513320"/>
</g>
</g>
<ellipse cx="1160.5" cy="1090" rx="4.5" ry="3" fill="#69442C"/>
<ellipse cx="462" cy="1047.71" rx="5" ry="2.70981" fill="#472B19"/>
<ellipse cx="866" cy="1129.71" rx="5" ry="2.70984" fill="#3E2311"/>
<ellipse cx="77" cy="1094.71" rx="5" ry="2.70981" fill="#3E2311"/>
</g>
<path d="M1356.28 985.662C1369.33 984.188 1374.36 984.59 1382.28 990.559C1384.34 998.376 1384.71 1006.54 1383.33 1015.46C1371.77 1013.6 1367.05 1016.49 1355.33 1019.95C1367.87 1019.52 1372.73 1017.6 1381.85 1022.79C1378.57 1036.01 1371.77 1050.95 1361.32 1068.71C1347.35 1053.31 1336.75 1036.06 1332.36 1023.76C1338.23 1019.55 1342.69 1019.66 1348.12 1020.24C1343.35 1016.37 1339.67 1017.37 1331.86 1018.57C1328.71 1005.46 1329.62 996.555 1334.38 983.933C1341.12 981.582 1346.71 984.74 1351.2 985.142C1348.13 982.37 1342.95 978.254 1336.13 979.613C1340.22 970.071 1350.66 960.197 1357.43 949.343C1369.62 961.106 1374.7 971.154 1379.53 982.554C1373.18 979.689 1368.77 981.098 1356.28 985.662Z" fill="#7C8E0E"/>
<path fill-rule="evenodd" clip-rule="evenodd" d="M1360.04 958.264L1360.04 958.264L1360.04 958.245C1360.23 956.385 1360.43 954.49 1360.63 952.56C1359.62 951.501 1358.55 950.43 1357.43 949.344C1356.5 950.827 1355.51 952.291 1354.47 953.739C1354.32 955.247 1354.16 956.734 1354.01 958.201L1354.01 958.219C1349.16 1005.08 1346.41 1031.63 1356.12 1062.72C1357.8 1064.74 1359.53 1066.74 1361.32 1068.71C1361.99 1067.57 1362.65 1066.43 1363.3 1065.31C1357.94 1049.87 1355.8 1035.91 1355.61 1019.94C1355.52 1019.94 1355.42 1019.95 1355.33 1019.95C1355.42 1019.92 1355.52 1019.9 1355.61 1019.87C1355.49 1009.57 1356.18 998.444 1357.33 985.546C1356.99 985.584 1356.63 985.623 1356.28 985.663C1356.64 985.529 1357.01 985.397 1357.36 985.268C1358.1 977.062 1359.02 968.141 1360.04 958.264Z" fill="#5B6A00"/>
<path d="M1392.83 1006.07C1402.21 1010.58 1405.43 1012.97 1408.23 1020.31C1406.33 1026.42 1403.13 1032.06 1398.46 1037.47C1391.48 1031.36 1387.09 1031.32 1377.76 1028.7C1386.36 1033.69 1390.43 1034.45 1394.38 1041.77C1386.61 1049.27 1375.76 1056.44 1361.26 1063.97C1358.36 1047.75 1358.5 1031.7 1360.73 1021.59C1366.44 1021.24 1369.39 1023.19 1372.8 1025.86C1371.22 1021.26 1368.33 1020.38 1362.58 1017.9C1365.98 1007.77 1370.34 1002.17 1378.85 995.7C1384.36 996.954 1386.79 1001.43 1389.64 1003.59C1388.74 1000.43 1386.99 995.488 1381.84 993.532C1388.6 988.844 1399.77 986.607 1408.89 982.167C1412.12 995.197 1411.31 1004.09 1409.76 1013.78C1406.69 1009.18 1403.14 1008.27 1392.83 1006.07Z" fill="#97AB1E"/>
<path fill-rule="evenodd" clip-rule="evenodd" d="M1393.85 1006.29C1397.79 1001.1 1402.16 995.511 1406.99 989.321C1407.88 988.178 1408.79 987.015 1409.71 985.83C1409.47 984.644 1409.2 983.425 1408.89 982.166C1407.57 982.808 1406.21 983.403 1404.83 983.967C1404.13 984.863 1403.44 985.748 1402.75 986.621C1397.96 992.764 1393.59 998.351 1389.63 1003.58C1389.63 1003.58 1389.63 1003.58 1389.63 1003.59C1389.63 1003.58 1389.63 1003.58 1389.63 1003.58C1374.69 1023.28 1365.46 1037.81 1360.25 1057.44C1360.54 1059.61 1360.87 1061.79 1361.26 1063.97C1362.25 1063.46 1363.21 1062.95 1364.16 1062.44C1367.06 1049.88 1371.49 1039.64 1378.06 1028.88C1377.96 1028.82 1377.86 1028.76 1377.76 1028.7C1377.88 1028.74 1377.99 1028.77 1378.11 1028.8C1382.36 1021.85 1387.5 1014.67 1393.7 1006.49C1393.42 1006.36 1393.12 1006.22 1392.83 1006.07C1393.18 1006.15 1393.52 1006.22 1393.85 1006.29Z" fill="#5B6A00"/>
<path d="M1322.53 1062.64C1321.14 1064.25 1320.12 1069.21 1319.78 1071.5C1319.89 1071.65 1320.24 1071.97 1320.81 1072.01L1339.34 1073.31C1345.35 1073.58 1357.68 1073.83 1358.9 1072.63C1360.43 1071.14 1356.19 1060.74 1353.41 1057.35C1350.63 1053.96 1345.97 1049.56 1340.05 1049.23C1334.13 1048.91 1324.26 1060.63 1322.53 1062.64Z" fill="#758082"/>
<mask id="mask6_338:1056" style="mask-type:alpha" maskUnits="userSpaceOnUse" x="1319" y="1049" width="41" height="25">
<path d="M1322.53 1062.64C1321.14 1064.25 1320.12 1069.21 1319.78 1071.5C1319.89 1071.65 1320.24 1071.97 1320.81 1072.01L1339.34 1073.31C1345.35 1073.58 1357.68 1073.83 1358.9 1072.63C1360.43 1071.14 1356.19 1060.74 1353.41 1057.35C1350.63 1053.96 1345.97 1049.56 1340.05 1049.23C1334.13 1048.91 1324.26 1060.63 1322.53 1062.64Z" fill="#758082"/>
</mask>
<g mask="url(#mask6_338:1056)">
<path d="M1323.11 1063.13C1321.74 1064.45 1321.27 1066.61 1321.21 1067.52C1321.19 1067.87 1321.33 1068.61 1322.1 1068.73C1323.07 1068.89 1325.94 1067.05 1329.16 1066.74C1332.37 1066.43 1344.03 1062.1 1345.58 1060.26C1347.12 1058.42 1343.41 1054.43 1342.9 1052.8C1342.4 1051.17 1342.15 1050.98 1339.52 1050.44C1336.9 1049.9 1328.81 1056.43 1328.22 1057.28C1327.63 1058.12 1324.83 1061.47 1323.11 1063.13Z" fill="#9FA9AB"/>
<path d="M1346.14 1055.95C1345.42 1054.58 1343.74 1051.47 1341.68 1048.81C1343.15 1048.92 1346.92 1051.48 1350.48 1057.41C1354.04 1063.33 1354.55 1069.4 1354.36 1071.69L1333.68 1073.18L1320.63 1072C1319.48 1071.92 1327.54 1070.8 1336.34 1069.37C1343.68 1065.8 1350.76 1064.7 1346.14 1055.95Z" fill="#566165"/>
<path d="M1346.24 1052.06C1344.67 1050.17 1342.39 1049.51 1341.45 1049.42L1344.01 1048.36L1352.48 1054.09L1361.02 1063.91L1359.37 1074.79L1354.74 1072.61C1354.35 1071.4 1353.51 1068.32 1353.27 1065.68C1352.97 1062.37 1348.2 1054.41 1346.24 1052.06Z" fill="#3F4A4C"/>
<path d="M1337.47 1069.63C1341.39 1068.26 1347.11 1063.65 1347.63 1061.29C1358.1 1072.67 1357.37 1072.97 1354.14 1073.45C1351.56 1073.84 1334.11 1073.27 1326.48 1073.3C1328.18 1072.76 1333.65 1070.96 1337.47 1069.63Z" fill="#3F4A4C"/>
</g>
<path d="M1362.67 1047.96C1358.91 1052.35 1356.2 1065.9 1355.31 1072.12C1355.61 1072.54 1356.58 1073.41 1358.12 1073.51L1408.63 1076.78C1425.01 1077.43 1458.6 1077.93 1461.9 1074.67C1466.03 1070.59 1454.34 1042.3 1446.72 1033.11C1439.1 1023.92 1426.35 1011.99 1410.22 1011.18C1394.09 1010.38 1367.38 1042.47 1362.67 1047.96Z" fill="#758082"/>
<mask id="mask7_338:1056" style="mask-type:alpha" maskUnits="userSpaceOnUse" x="1355" y="1011" width="108" height="67">
<path d="M1362.67 1047.96C1358.91 1052.35 1356.2 1065.9 1355.31 1072.12C1355.61 1072.54 1356.58 1073.41 1358.12 1073.51L1408.63 1076.78C1425.01 1077.43 1458.6 1077.93 1461.9 1074.67C1466.03 1070.59 1454.34 1042.3 1446.72 1033.11C1439.1 1023.92 1426.35 1011.99 1410.22 1011.18C1394.09 1010.38 1367.38 1042.47 1362.67 1047.96Z" fill="#758082"/>
</mask>
<g mask="url(#mask7_338:1056)">
<path d="M1364.28 1049.27C1360.56 1052.9 1359.31 1058.77 1359.15 1061.26C1359.09 1062.22 1359.49 1064.23 1361.6 1064.56C1364.23 1064.97 1372.04 1059.92 1380.79 1059.03C1389.55 1058.15 1421.23 1046.19 1425.43 1041.15C1429.62 1036.11 1419.45 1025.31 1418.04 1020.87C1416.64 1016.43 1415.95 1015.9 1408.8 1014.47C1401.64 1013.04 1379.71 1030.95 1378.11 1033.26C1376.52 1035.57 1368.92 1044.74 1364.28 1049.27Z" fill="#9FA9AB"/>
<path d="M1426.91 1029.41C1424.91 1025.67 1420.29 1017.23 1414.64 1010.02C1418.65 1010.28 1428.96 1017.23 1438.73 1033.32C1448.51 1049.41 1449.99 1065.93 1449.5 1072.18L1393.19 1076.5L1357.64 1073.48C1354.51 1073.27 1376.45 1070.11 1400.38 1066.1C1420.34 1056.28 1439.62 1053.18 1426.91 1029.41Z" fill="#566165"/>
<path d="M1427.12 1018.8C1422.81 1013.69 1416.61 1011.92 1414.05 1011.67L1421 1008.74L1444.15 1024.25L1467.55 1050.88L1463.21 1080.55L1450.55 1074.66C1449.48 1071.37 1447.15 1062.99 1446.46 1055.8C1445.59 1046.81 1432.5 1025.19 1427.12 1018.8Z" fill="#3F4A4C"/>
<path d="M1403.48 1066.78C1414.13 1063.01 1429.66 1050.36 1431.04 1043.93C1459.72 1074.77 1457.73 1075.61 1448.95 1076.97C1441.92 1078.06 1394.38 1076.74 1373.6 1076.93C1378.2 1075.45 1393.1 1070.46 1403.48 1066.78Z" fill="#3F4A4C"/>
</g>
<path d="M76.7642 1062.32C76.3771 1059.89 64.5698 1059.65 58.7145 1059.83C63.0168 1055.53 69.9478 1055.08 74.9909 1055.42C67.0143 1043.32 60.819 1042.97 48.661 1035.93C70.5622 1030.69 78.6171 1042.68 83.2505 1044.06C83.7016 1040.88 78.769 1030.41 77.7186 1028.64C76.6683 1026.87 73.8801 1023.83 70.0281 1015.33C73.5176 1014.95 81.709 1021.19 85.9255 1028.37C90.142 1035.55 88.9632 1044.39 89.2342 1043.08C89.5051 1041.77 89.7513 1039.11 90.1364 1036.71C90.5215 1034.32 92.7506 1027.25 99.5072 1020.9C108.813 1015.49 117.348 1014.87 122.023 1014.1C118.639 1021.75 112.542 1026.83 104.7 1032.39C98.2565 1038.3 96.8004 1039.99 93.2183 1050C103.88 1041.07 123.552 1042.9 124.672 1046.31C110.57 1049.32 99.9283 1059.98 96.3702 1064.94C89.9962 1065.07 77.1512 1064.74 76.7642 1062.32Z" fill="#97AB1E"/>
<mask id="mask8_338:1056" style="mask-type:alpha" maskUnits="userSpaceOnUse" x="48" y="1014" width="77" height="51">
<path d="M76.7642 1062.32C76.3771 1059.89 64.5698 1059.65 58.7145 1059.83C63.0168 1055.53 69.9478 1055.08 74.9909 1055.42C67.0143 1043.32 60.819 1042.97 48.661 1035.93C70.5622 1030.69 78.6171 1042.68 83.2505 1044.06C83.7016 1040.88 78.769 1030.41 77.7186 1028.64C76.6683 1026.87 73.8801 1023.83 70.0281 1015.33C73.5176 1014.95 81.709 1021.19 85.9255 1028.37C90.142 1035.55 88.9632 1044.39 89.2342 1043.08C89.5051 1041.77 89.7513 1039.11 90.1364 1036.71C90.5215 1034.32 92.7506 1027.25 99.5072 1020.9C108.813 1015.49 117.348 1014.87 122.023 1014.1C118.639 1021.75 112.542 1026.83 104.7 1032.39C98.2565 1038.3 96.8004 1039.99 93.2183 1050C103.88 1041.07 123.552 1042.9 124.672 1046.31C110.57 1049.32 99.9283 1059.98 96.3702 1064.94C89.9962 1065.07 77.1512 1064.74 76.7642 1062.32Z" fill="#97AB1E"/>
</mask>
<g mask="url(#mask8_338:1056)">
<path d="M95.2159 1046.5C96.7918 1044.85 97.8046 1045.52 98.8052 1041.87L101.409 1039.08C100.347 1042.19 97.0195 1045.19 96.2719 1047.47C95.5519 1049.66 90.5512 1052.04 88.782 1052.87C88.5698 1053.02 88.3926 1053.12 88.2596 1053.16C88.0147 1053.23 88.255 1053.12 88.782 1052.87C90.2731 1051.81 93.4914 1048.3 95.2159 1046.5Z" fill="#84961B"/>
<path d="M94.0313 1053C86.2848 1054.95 63.4245 1055.66 55.2593 1056.78L64.262 1061.79L102.712 1063.26C113.599 1054.34 140.429 1032.03 139.424 1032.25C138.168 1032.53 130.741 1004.36 120.362 1010.81C110.94 1016.66 97.8245 1052.05 94.0313 1053Z" fill="#84961B"/>
</g>
<path d="M348.753 1034.28C347.473 1032.23 336.739 1035.46 331.532 1037.33C333.756 1032.25 339.827 1029.83 344.503 1028.66C332.662 1020.22 326.946 1021.72 313.282 1019C331.004 1007.96 342.873 1016.28 347.578 1016.15C346.761 1013.19 338.294 1005.33 336.666 1004.06C335.039 1002.79 331.357 1000.9 324.617 994.459C327.616 993.107 337.396 996.266 343.956 1001.42C350.516 1006.58 352.852 1014.78 352.594 1013.54C352.335 1012.3 351.533 1009.86 350.959 1007.62C350.386 1005.37 349.676 998.44 353.323 990.823C359.628 983.302 367.081 980.264 371 978.222C370.89 986.007 367.349 992.298 362.419 999.526C358.886 1006.66 358.226 1008.59 358.847 1018.54C365.019 1007.49 383.45 1003.38 385.771 1006.09C374.22 1012.87 368.729 1025.45 367.428 1030.89C361.737 1032.87 350.034 1036.32 348.753 1034.28Z" fill="#97AB1E"/>
<mask id="mask9_338:1056" style="mask-type:alpha" maskUnits="userSpaceOnUse" x="313" y="978" width="73" height="60">
<path d="M348.979 1034.36C347.68 1032.3 336.988 1035.45 331.804 1037.28C333.978 1032.21 340.019 1029.82 344.679 1028.69C332.77 1020.13 327.074 1021.59 313.398 1018.75C330.997 1007.81 342.933 1016.24 347.632 1016.16C346.788 1013.18 338.254 1005.22 336.616 1003.93C334.978 1002.65 331.282 1000.72 324.487 994.207C327.471 992.873 337.271 996.119 343.873 1001.34C350.475 1006.57 352.888 1014.82 352.618 1013.57C352.347 1012.32 351.523 1009.87 350.928 1007.61C350.334 1005.36 349.559 998.394 353.129 990.777C359.357 983.277 366.774 980.284 370.668 978.265C370.633 986.077 367.155 992.365 362.299 999.581C358.838 1006.71 358.197 1008.65 358.912 1018.63C364.972 1007.59 383.346 1003.61 385.69 1006.35C374.215 1013.07 368.85 1025.65 367.602 1031.1C361.935 1033.05 350.277 1036.42 348.979 1034.36Z" fill="#97AB1E"/>
</mask>
<g mask="url(#mask9_338:1056)">
<path d="M359.216 1014.59C359.98 1012.67 361.147 1012.98 360.614 1009.43L361.852 1006.2C362.118 1009.28 360.316 1012.9 360.54 1015.16C360.755 1017.32 357.216 1020.87 355.961 1022.12C355.83 1022.31 355.711 1022.45 355.607 1022.53C355.416 1022.66 355.587 1022.49 355.961 1022.12C356.88 1020.75 358.38 1016.69 359.216 1014.59Z" fill="#84961B"/>
<path d="M361.036 1021.08C354.876 1025.08 334.723 1032.31 327.862 1035.67L337.87 1037.61L372.807 1027.84C379.047 1016.64 394.297 988.742 393.486 989.233C392.473 989.847 374.812 966.53 368.059 975.351C361.928 983.357 364.053 1019.12 361.036 1021.08Z" fill="#84961B"/>
</g>
<path d="M77.5344 1063.44L174.29 1104.24L196.312 1060.55L171.04 999.883C171.04 999.883 127.856 992.661 114.498 995.55C101.14 998.438 80.59 1022.63 77.5344 1063.44Z" fill="#DF8E5A"/>
<path d="M105.339 1075.16L91.7801 1069.44C93.2316 1062.55 96.1162 1053.26 99.1814 1044.72C100.893 1039.96 102.654 1035.44 104.245 1031.74C105.843 1028.02 107.245 1025.17 108.233 1023.69C109.462 1021.84 110.8 1020.66 112.23 1019.97C113.659 1019.28 115.243 1019.04 117.014 1019.2C120.604 1019.51 124.845 1021.41 129.813 1024.13C130.906 1024.73 132.154 1025.88 133.501 1027.57C134.839 1029.25 136.233 1031.41 137.633 1033.95C140.431 1039.04 143.218 1045.61 145.593 1052.85C150.049 1066.42 153.016 1082.21 151.977 1094.83L142.706 1090.92C144.436 1086.44 145.396 1081.3 145.206 1075.45C144.932 1066.96 142.247 1056.97 136.087 1045.11C132.236 1037.7 128.737 1032.62 125.589 1029.5C122.45 1026.39 119.609 1025.19 117.066 1025.67C114.471 1026.16 112.257 1028.4 110.492 1031.86C108.757 1035.26 107.472 1039.79 106.588 1044.96C105.115 1053.58 104.704 1064.26 105.339 1075.16Z" fill="#FCC29D"/>
<path d="M97.5287 1044.13C94.5059 1052.55 91.6322 1061.77 90.1325 1068.75L81.2942 1065.02L81.2674 1064.97C82.5104 1057.25 87.0165 1045.69 92.3939 1035.34C95.1106 1030.11 98.0335 1025.23 100.843 1021.33C103.675 1017.41 106.317 1014.6 108.451 1013.41C112.881 1010.93 116.488 1009.66 120.417 1009.75C124.366 1009.84 128.758 1011.29 134.746 1014.5C136.119 1015.23 137.678 1016.6 139.359 1018.54C141.032 1020.48 142.788 1022.95 144.562 1025.84C148.11 1031.63 151.7 1039.07 154.824 1047.24C161.083 1063.6 165.412 1082.7 163.892 1097.12C163.798 1098.01 163.689 1098.88 163.565 1099.72L153.678 1095.55C154.884 1082.49 151.816 1066.18 147.262 1052.3C144.86 1044.99 142.033 1038.31 139.171 1033.11C137.74 1030.51 136.292 1028.26 134.875 1026.48C133.466 1024.71 132.046 1023.35 130.657 1022.59C125.694 1019.87 121.163 1017.8 117.167 1017.45C115.145 1017.27 113.232 1017.53 111.464 1018.39C109.698 1019.24 108.138 1020.67 106.773 1022.71C105.686 1024.34 104.229 1027.32 102.631 1031.05C101.024 1034.79 99.2492 1039.34 97.5287 1044.13Z" fill="#FCC29D"/>
<path d="M165.234 1100.42C165.39 1099.42 165.525 1098.38 165.639 1097.3C167.201 1082.48 162.762 1063.07 156.464 1046.61C153.31 1038.37 149.675 1030.82 146.059 1024.92C144.251 1021.97 142.44 1019.42 140.688 1017.39C138.943 1015.37 137.219 1013.83 135.574 1012.95C129.494 1009.7 124.812 1008.09 120.456 1008C116.08 1007.9 112.151 1009.32 107.592 1011.88C105.099 1013.27 102.268 1016.36 99.4186 1020.31C96.5463 1024.29 93.5797 1029.25 90.8356 1034.53C85.5143 1044.77 80.969 1056.32 79.5979 1064.31L77.5344 1063.44C80.59 1022.63 101.14 998.438 114.498 995.55C127.856 992.661 171.04 999.883 171.04 999.883L196.312 1060.55L174.29 1104.24L165.234 1100.42Z" fill="#FCC29D"/>
<path d="M106.766 1075.77C106.015 1064.51 106.398 1053.51 107.881 1044.83C108.736 1039.84 109.937 1035.72 111.434 1032.79C112.899 1029.92 114.661 1028.15 116.784 1027.74C118.958 1027.33 121.575 1028.34 124.633 1031.37C127.682 1034.39 131.119 1039.36 134.939 1046.72C141.052 1058.48 143.607 1068.2 143.866 1076.22C144.043 1081.69 143.153 1086.38 141.569 1090.44L135.507 1087.89C135.533 1085.92 135.396 1083.41 135.096 1080.59C134.704 1076.91 134.026 1072.65 133.036 1068.3C131.059 1059.62 127.815 1050.5 123.05 1045C121.864 1043.64 120.649 1043.14 119.459 1044.21C118.874 1044.74 118.411 1045.55 118.05 1046.46C117.69 1047.37 117.403 1048.45 117.171 1049.63C116.252 1054.29 116.024 1061.43 116.256 1068.86C116.372 1072.57 116.605 1076.39 116.933 1080.05L106.766 1075.77Z" fill="#FCC29D"/>
<path d="M123.166 1066.46C122.896 1066.29 122.713 1066.23 122.605 1066.23C122.577 1066.45 122.565 1066.81 122.605 1067.33C122.653 1067.96 122.77 1068.73 122.955 1069.61C123.692 1073.08 125.448 1077.95 127.835 1082.28C128.242 1082.47 128.719 1082.46 129.051 1082.19C129.195 1082.07 129.343 1081.88 129.481 1081.5C129.631 1081.09 129.78 1080.41 129.835 1079.36C129.967 1076.82 129.201 1074.15 127.899 1071.79C126.608 1069.45 124.854 1067.53 123.166 1066.46Z" fill="#FCC29D"/>
<path fill-rule="evenodd" clip-rule="evenodd" d="M118.409 1080.68C118.009 1076.6 117.728 1072.28 117.597 1068.09C117.365 1060.68 117.609 1053.84 118.448 1049.59C118.656 1048.54 118.889 1047.7 119.134 1047.08C119.379 1046.46 119.607 1046.12 119.804 1045.94C120.179 1045.61 120.893 1045.49 122.046 1046.82C126.632 1052.12 129.803 1060.97 131.751 1069.52C132.723 1073.79 133.386 1077.97 133.769 1081.55C134.003 1083.76 134.13 1085.71 134.161 1087.32L118.409 1080.68ZM126.776 1084.05C124.3 1079.58 122.452 1074.51 121.664 1070.8C121.466 1069.86 121.33 1068.99 121.271 1068.22C121.214 1067.48 121.218 1066.72 121.37 1066.04C121.45 1065.68 121.585 1065.28 121.81 1064.92C122.043 1064.55 122.312 1064.33 122.573 1064.22C123.047 1064.02 123.529 1064.19 123.989 1064.48C125.801 1065.64 127.659 1067.67 129.031 1070.16C130.391 1072.62 131.338 1075.65 131.172 1078.84C131.107 1080.09 130.921 1081.14 130.604 1082.01C130.276 1082.92 129.827 1083.58 129.33 1083.98C128.407 1084.74 127.475 1084.52 126.948 1084.23L126.845 1084.17L126.776 1084.05Z" fill="#FCC29D"/>
<path d="M316.466 949.216C285.779 949.216 133.355 982.189 115.804 991.216C103.307 997.644 70.8144 1022.99 78.035 1063.08C86.6712 959.562 184.782 993.611 174.29 1104.24L365.995 1051.52C376.465 1001.69 347.153 949.216 316.466 949.216Z" fill="#652C08"/>
<path d="M289.579 997.716C299.197 999.958 328.364 983.892 330.184 967.637C319.642 964.906 310.965 966.765 298.855 965.758L289.579 997.716Z" fill="#74580E"/>
<path d="M327.627 970.418L313.938 964.026C303.245 960.836 313.517 966.229 304.19 973.773L292.999 1031.91L300.23 1021.09L317.188 1019.99L327.627 970.418Z" fill="#FCC29D"/>
<g filter="url(#filter4_i_338:1056)">
<path d="M327.627 970.418L314.3 1034.44L288.308 1034.44L301.302 982.439L303.123 960.779L316.826 962.221C323.598 965.308 327.613 967.029 327.627 970.418Z" fill="#FFD3B7"/>
</g>
<g filter="url(#filter5_i_338:1056)">
<path d="M330.185 967.633L283.612 941.995C267.027 931.734 257.218 935.545 239.567 945.245L302.747 983.16C307.801 971.966 319.147 965.109 330.185 967.633Z" fill="#997B2D"/>
</g>
<g filter="url(#filter6_i_338:1056)">
<path d="M273.601 1078.25C273.601 1078.25 285.189 1035.51 291.056 1030.96C296.923 1026.4 300.007 1025.79 304.986 1041.9L312.083 1060.81C311.325 1064.78 311.739 1066.79 322.864 1067.76C337.974 1066.22 353.362 1073.39 358.544 1074.74C361.529 1075.51 366.216 1085.55 356.296 1091.31C346.375 1097.08 340.386 1098.8 331.768 1099.71C323.151 1100.62 320.978 1099.07 316.601 1098.4C312.224 1097.74 274.065 1082.65 273.601 1078.25Z" fill="#5F4725"/>
</g>
<g filter="url(#filter7_i_338:1056)">
<path d="M274.962 1073.27C274.962 1073.27 282.186 1037.4 284.122 1029.94C288.726 1023.86 308.998 1021.87 316.475 1033.79L312.68 1056.82C311.923 1060.78 312.337 1062.8 323.461 1063.77C338.571 1062.23 352.92 1064.88 356.141 1069.16C359.362 1073.44 366.107 1080.15 356.187 1085.92C346.266 1091.68 340.277 1093.4 331.659 1094.31C323.042 1095.22 320.869 1093.67 316.492 1093.01C312.115 1092.34 275.426 1077.67 274.962 1073.27Z" fill="#867643"/>
</g>
<path fill-rule="evenodd" clip-rule="evenodd" d="M312.623 1044.76L302.839 1048.39L310.616 1057L303.669 1059.58L304.629 1062.18L312.618 1059.22L313.47 1060.16L315.535 1058.29L315.428 1058.17L316.202 1057.89L315.242 1055.28L313.425 1055.96L307.651 1049.56L313.583 1047.36L314.7 1050.39L317.308 1049.43L316.191 1046.39L318.744 1045.45L317.785 1042.84L315.231 1043.79L312.872 1037.39L310.264 1038.35L312.623 1044.76Z" fill="#D9D7DA"/>
<path d="M269.532 1014.94C279.95 1012.48 305.88 988.985 303.469 979.549C292.61 978.746 285.044 980.662 272.949 981.836L269.532 1014.94Z" fill="#74580E"/>
<path d="M302.909 982.787L290.024 971.406C280.098 976.504 274.967 977.626 273.453 989.528L312.339 1040.57L318.192 1038.33L333.923 1023.72L302.909 982.787Z" fill="#FCC29D"/>
<path fill-rule="evenodd" clip-rule="evenodd" d="M290.024 971.406L302.909 982.787L333.923 1023.72L319.571 1037.05L278.551 992.789L278.008 995.507L273.453 989.528C274.795 978.971 278.984 976.895 286.841 973.003C287.842 972.507 288.902 971.982 290.024 971.406Z" fill="#FFD3B7"/>
<g filter="url(#filter8_i_338:1056)">
<path d="M202.02 973.773C214.837 995.469 248.564 1001.45 269.532 1014.94C280.269 987.275 291.636 979.549 303.468 979.549L294.442 973.773L246.426 946.689L202.02 973.773Z" fill="#997B2D"/>
</g>
<path d="M308.47 1040.46C316.021 1022.78 321.25 1014.93 340.201 1020.89L348.538 1035.46C351.066 1038.61 352.867 1039.6 360.818 1031.76C369.438 1019.25 380.764 1010.05 386.11 1010.37C391.456 1010.69 397.188 1014.44 400.947 1019.11C404.705 1023.78 397.391 1040.82 395.498 1044.51C393.605 1048.2 356.535 1083.89 356.535 1083.89C347.592 1091.46 340.823 1094.01 336.888 1089.82C332.953 1085.63 324.148 1064.86 324.148 1064.86L308.47 1040.46Z" fill="#322007"/>
<path d="M311.33 1044.6C319.037 1026.51 324.352 1018.47 343.438 1024.46L351.775 1039.29C354.309 1042.49 356.12 1043.49 364.181 1035.45C372.94 1022.63 386.499 1012.19 391.89 1012.49C395.92 1013.43 396.835 1015.41 398.997 1016.97C394.243 1017.05 379.84 1036.63 372.24 1046.96C369.957 1050.06 368.289 1052.33 367.679 1052.99C364.961 1055.91 350.115 1070.67 341.639 1077.6C341.639 1077.6 337.591 1081.16 336.328 1084.61C335.914 1085.75 335.7 1087 335.672 1088.28C330.816 1081.01 327.021 1069.42 327.021 1069.42L311.33 1044.6Z" fill="#4E3410"/>
<g filter="url(#filter9_i_338:1056)">
<path d="M343.413 1024.71C324.458 1018.75 319.18 1026.75 311.528 1044.77L327.114 1069.49C327.114 1069.49 328.053 1072.36 329.592 1076.13L334.602 1074.98C341.219 1074.7 345.471 1072.46 351.166 1069.15C358.328 1062.45 365.665 1055.09 367.491 1053.12C368.096 1052.47 369.753 1050.21 372.019 1047.12C379.566 1036.84 394.419 1017.19 399.141 1017.1C398.527 1016.66 397.487 1015.42 396.974 1014.94C395.694 1013.74 394.389 1013.47 391.53 1012.81C386.176 1012.51 372.712 1022.9 364.015 1035.66C356.01 1043.67 354.212 1042.67 351.694 1039.49L343.413 1024.71Z" fill="#5F4725"/>
</g>
<path d="M308.47 1040.46C316.02 1022.78 321.25 1014.93 340.2 1020.89L348.538 1035.46C351.066 1038.61 352.866 1039.6 360.817 1031.76C369.438 1019.25 380.764 1010.05 386.11 1010.37C389.174 1010.55 392.366 1011.86 395.24 1013.83C390.528 1013.89 376.346 1032.99 368.863 1043.08C366.616 1046.1 364.973 1048.32 364.372 1048.96C361.692 1051.81 347.047 1066.19 338.679 1072.94C338.679 1072.94 334.683 1076.41 333.448 1079.79C333.044 1080.9 332.837 1082.12 332.816 1083.37C328.772 1075.77 324.147 1064.86 324.147 1064.86L308.47 1040.46Z" fill="#695821"/>
<g filter="url(#filter10_i_338:1056)">
<path d="M336.61 1074.85C336.61 1074.85 311.841 1039.54 312.178 1032.12C312.514 1024.7 324.711 1014.24 340.2 1020.89L348.538 1035.46C351.066 1038.61 352.866 1039.6 360.817 1031.76C369.438 1019.25 380.764 1010.05 386.11 1010.37C389.174 1010.55 392.366 1011.86 395.24 1013.83C390.528 1013.89 376.346 1033 368.863 1043.08C366.616 1046.1 364.973 1048.32 364.372 1048.96C363.732 1049.64 338.365 1073.12 336.61 1074.85Z" fill="#867643"/>
</g>
<path fill-rule="evenodd" clip-rule="evenodd" d="M341.12 1029.29L337.541 1039.09L349.138 1038.75L346.597 1045.71L349.202 1046.67L352.125 1038.66L353.395 1038.63L353.313 1035.84L353.153 1035.85L353.436 1035.07L350.83 1034.12L350.166 1035.94L341.556 1036.19L343.726 1030.24L346.758 1031.36L347.712 1028.75L344.68 1027.63L345.614 1025.07L343.009 1024.11L342.074 1026.67L335.67 1024.32L334.716 1026.93L341.12 1029.29Z" fill="#D9D7DA"/>
<path d="M294.13 893.599L283.011 893.106L275.897 901.91L275.897 908.415C275.897 908.415 287.868 921.375 294.13 918.162C297.702 916.329 339.933 874.468 339.933 874.468L331.629 869.413L294.13 893.599Z" fill="#FCC29D"/>
<path d="M283.011 893.105L294.13 893.598L330.787 868.699L337.044 872.664C317.886 888.661 313.595 892.961 299.637 906.364C291.242 908.309 284.837 907.269 283.5 901.106L278.999 890.548L283.011 893.105Z" fill="#FFD3B7"/>
<path d="M328.646 868.744C328.842 871.19 329.336 872.278 330.835 873.313C330.835 873.313 331.807 873.764 333.599 874.434C335.391 875.104 340.464 876.106 340.464 876.106L340.087 867.238L334.804 863.297C335.324 861.532 336.591 857.024 336.215 856.199C335.839 855.373 335.222 851.577 331.779 852.472C333.322 855.7 331.209 858.665 330.365 860.731C329.522 862.797 328.45 866.298 328.646 868.744Z" fill="#FFD3B7"/>
<path d="M349.041 850.982C344.997 854.156 334.9 861.567 334.9 861.567L331.682 872.687C333.321 874.955 334.49 874.943 338.84 877.01C344.55 876.854 349.6 873.645 349.6 873.645C349.6 873.645 354.103 871.065 355.183 870.47C356.263 869.875 359.453 868.996 361.138 868.469C365.885 867.419 367.47 863.823 360.037 865.844C353.97 866.418 351.011 867.52 351.011 867.52C351.011 867.52 358.549 862.926 361.903 861.912C365.258 860.899 367.439 856.605 359.496 859.322C352.522 861.708 347.268 864.103 347.268 864.103C347.268 864.103 352.744 860.778 358.432 856.9C364.12 853.022 361.199 850.79 356.088 853.863C350.977 856.937 343.103 861.343 343.103 861.343C343.103 861.343 348.297 856.313 352.583 853.132C356.87 849.951 353.086 847.807 349.041 850.982Z" fill="#FFD3B7"/>
<path d="M173.509 977.542L179.277 905.162L198.411 912.022C198.805 916.018 183.82 982.81 183.82 982.81L173.509 977.542Z" fill="#FCC29D"/>
<path d="M177.833 905.162L172.776 978.463L179.174 980.336C182.247 955.563 186.761 932.099 190.469 913.103L177.833 905.162Z" fill="#FFD3B7"/>
<path d="M170.603 978.64C173.894 977.853 175.456 978.004 178.068 978.64L181.49 981.963L167.804 993.141L161.585 984.605C164.769 981.904 166.953 980.093 170.603 978.64Z" fill="#FFD3B7"/>
<g filter="url(#filter11_i_338:1056)">
<path d="M154.74 991.63C155.483 990.606 161.585 984.605 161.585 984.605L166.639 988.216C166.639 988.216 157.35 995.44 156.607 996.464C155.863 997.488 155.984 998.881 155.984 998.881C155.984 998.881 155.172 997.744 154.429 996.464C153.686 995.184 153.997 992.654 154.74 991.63Z" fill="#FFD3B7"/>
</g>
<g filter="url(#filter12_i_338:1056)">
<path d="M156.606 993.443C157.54 992.234 164.072 985.588 164.072 985.588L170.25 988.938C170.25 988.938 159.991 997.48 159.058 998.688C158.125 999.896 156.918 1003.71 156.918 1003.71C156.918 1003.71 155.051 1000.69 154.429 998.276C153.807 995.86 155.673 994.651 156.606 993.443Z" fill="#FFD3B7"/>
</g>
<g filter="url(#filter13_i_338:1056)">
<path d="M155.985 999.787C155.985 997.37 166.871 987.099 166.871 987.099L173.138 989.299C173.138 989.299 161.583 999.484 160.65 1001.3C159.717 1003.11 159.717 1004.62 159.717 1006.43C158.162 1012.17 155.985 1002.2 155.985 999.787Z" fill="#FFD3B7"/>
</g>
<path d="M184.082 995.461C184.289 994.348 186.156 988.504 184.082 981.831L178.152 978.64L169.048 988.609C165.396 993.162 160.093 997.497 159.015 1000.69C157.936 1003.88 156.757 1008.85 159.015 1009.15C161.272 1009.45 163.794 1002.98 164.675 1001.56C165.556 1000.13 177.583 990.2 178.152 991.025C178.152 997.698 181.801 1004.74 184.082 1004.74C186.364 1004.74 183.876 996.573 184.082 995.461Z" fill="#FCC29D"/>
<path d="M178.553 979.379C178.553 979.379 173.334 990.383 172.153 991.827C170.972 993.271 168.07 994.355 166.015 996.882C163.96 999.41 162.315 1002.03 161.585 1004.1C160.855 1006.18 159.862 1009.53 158.39 1009.34C156.133 1009.04 158.341 1004.77 159.419 1001.58C160.095 999.574 161.408 996.419 163.96 993.744L163.96 993.744C165.475 992.157 167.064 990.491 168.424 988.796L177.528 978.827L178.553 979.379Z" fill="#FFD3B7"/>
<path d="M179.636 978.105C178.252 978.297 176.217 978.196 173.515 978.124C173.28 978.115 173.035 978.109 172.777 978.105C173.028 978.111 173.274 978.117 173.515 978.124C176.646 978.243 177.8 978.854 179.275 979.911L179.636 978.105Z" fill="#FCC29D"/>
<path d="M248.033 854.108L248.033 847.385L235.435 837.278L228.036 849.236L239.206 854.108L250.746 864.41L248.033 854.108Z" fill="#FCC29D"/>
<path d="M296.248 891.44C279.279 872.301 269.532 854.607 254.369 849.552L258.564 893.712L274.947 913.467C285.056 898.662 290.771 893.269 296.248 891.44Z" fill="#A6893E"/>
<path d="M198.771 981.177C235.595 941.743 277.835 943.078 286.5 943.078L255.133 852.854C248.586 849.856 248.252 850.207 247.757 851.259L251.191 862.831L230.92 856.81L225.486 846.97C213.882 841.829 207.543 844.034 217.478 852.321C215.595 854.177 212.288 854.49 211.048 856.883C209.359 860.144 202.288 866.087 201.166 870.505C197.757 915.57 194.302 941.87 198.771 981.177Z" fill="#B6984A"/>
<path fill-rule="evenodd" clip-rule="evenodd" d="M211.048 963.661C211.048 934.411 207.218 915.273 202.197 868.143C203.421 866.051 205.404 863.805 207.218 861.753C208.869 859.883 210.38 858.173 211.048 856.883C212.288 854.49 194.36 861.75 196.243 859.893C186.307 851.607 214.244 837.853 225.848 842.993L236.678 862.551L249.314 857.905L247.509 846.663C248.592 847.385 248.953 846.639 254.73 849.621C267.587 863.815 270.244 889.847 286.5 943.078C282.89 941.995 249.587 938.982 211.048 963.661Z" fill="#C1A764"/>
<path d="M205.671 918.95C224.185 871.122 219.824 857.889 210.749 848.971C201.674 840.052 185.645 855.058 170.067 904.088C181.794 915.356 188.649 915.401 205.671 918.95Z" fill="#A6893E"/>
<path d="M245.187 859.513C237.437 852.135 234.751 848.311 231.077 841.891L222.01 836.552C223.572 841.77 225.422 855.494 239.011 867.283C240.118 865.146 240.857 865.389 245.187 859.513L251.874 865.524C253.299 859.708 253.087 856.642 251.795 849.072C249.731 847.584 248.286 846.703 246.787 846.302C247.863 854.192 247.056 856.976 245.187 859.513Z" fill="#A6893E"/>
<path d="M137.375 738.636C218.521 753.525 263.33 756.225 341.733 748.591C298.593 720.065 279.911 714.532 247.586 706.558C209.355 702.413 185.405 708.817 137.375 738.636Z" fill="#4F5B00"/>
<path d="M328.547 744.09C327.525 757.465 323.924 770.855 316.161 785.282L167.903 783.377C158.036 758.626 154.36 743.979 156.631 730.996L160.055 721.282L264.218 693.24L328.547 744.09Z" fill="#652C08"/>
<path d="M316.307 783.156C314.501 771.212 309.101 779.844 306.626 785.653L302.617 807.518C307.933 804.374 318.113 795.101 316.307 783.156Z" fill="#FCC29D"/>
<path d="M166.615 782.207C168.494 770.274 173.843 778.939 176.282 784.763L180.159 806.653C174.861 803.476 164.735 794.14 166.615 782.207Z" fill="#FCC29D"/>
<path d="M288.992 832.037C300.185 826.078 300.484 812.435 298.967 775.747C303.35 728.854 297.416 708.478 265.299 687.314C214.078 685.328 194.342 699.867 182.478 766.473C179.935 807.742 182.221 817.156 189.092 823.623C202.747 836.949 215.051 841.56 241.057 847.285C259.666 844.114 270.11 842.056 288.992 832.037Z" fill="#FFD3B7"/>
<path d="M273.72 735.814C284.571 757.171 289.836 764.526 297.562 768.303C301.786 801.932 298.64 817.973 293.639 846.896C308.804 795.839 312.37 764.927 313.952 707.576L179.543 699.056C171.9 712.443 169.583 722.509 171.291 748.057L181.672 846.549C182.134 816.549 179.47 803.415 194.843 754.613L194.815 763.932C203.208 757.655 207.865 752.23 215.906 731.988C233.207 741.112 243.191 746.527 250.855 745.468C249.204 743.209 248.365 741.74 248.306 735.735C256.535 743.888 262.202 748.265 278.818 754.873C276.358 750.819 275.208 746.885 273.72 735.814Z" fill="#743A15"/>
<path d="M137 738.233C219.024 717.867 263.863 723.761 342.861 749.002L325.583 726.662C317.83 688.555 315.698 658.89 244.006 643.342C187.706 647.937 172.231 666.967 157.812 714.391L137 738.233Z" fill="#695821"/>
<path d="M157.811 714.389C223.952 705.342 260.432 706.246 325.584 726.663L323.356 715.309C259.038 692.963 224.322 691.408 161.617 702.648L157.811 714.389Z" fill="#C1A764"/>
<path d="M275.368 805.302C281.106 805.275 287.531 803.115 290.634 797.873L292.191 790.509L292.173 786.992L290.555 782.202L287.024 777.422L279.669 772.979L269.154 773.989L264.39 777.53C264.39 777.53 258.989 781.394 257.097 785.561C255.205 789.728 255.857 792.603 255.865 794.202C255.873 795.801 257.169 799.953 261.325 802.171C265.481 804.39 269.63 805.33 275.368 805.302Z" fill="#F8F4F4"/>
<path d="M261.264 790.018C261.293 795.67 265.883 800.23 271.517 800.203C277.151 800.176 281.696 795.572 281.667 789.92C281.639 784.268 277.049 779.708 271.415 779.735C265.781 779.762 261.236 784.366 261.264 790.018Z" fill="#652C08"/>
<path d="M262.517 785.855C262.525 787.445 263.817 788.728 265.402 788.72C266.986 788.713 268.265 787.418 268.257 785.828C268.249 784.238 266.958 782.955 265.373 782.963C263.788 782.97 262.509 784.265 262.517 785.855Z" fill="#F2F1F1"/>
<path d="M292.153 782.834C294.09 787.622 292.307 794.109 290.322 799.154C291.493 793.149 291.856 787.313 289.926 783.804C287.996 780.295 285.423 775.83 278.722 774.583C272.02 773.336 267.712 774.486 260.893 779.466C267.027 773.502 272.645 770.774 279.667 772.34C286.688 773.905 290.216 778.046 292.153 782.834Z" fill="#652C08"/>
<path fill-rule="evenodd" clip-rule="evenodd" d="M281.144 749.184C284.734 750.117 288.185 752.188 292.825 755.943L296.919 750.852C292.034 746.899 287.715 744.135 282.778 742.852C277.815 741.563 272.601 741.865 266.082 743.306L267.485 749.694C273.511 748.361 277.58 748.258 281.144 749.184Z" fill="#652C08"/>
<path d="M260.917 821.495C253.976 835.959 231.658 835.532 223.299 821.676L260.917 821.495Z" fill="#FC8D8D"/>
<path d="M209.266 803.569C203.527 803.596 197.081 801.498 193.926 796.286L192.296 788.938L192.278 785.42L193.848 780.616L197.331 775.802L204.641 771.289L215.166 772.198L219.965 775.693C219.965 775.693 225.404 779.504 227.338 783.653C229.271 787.801 228.648 790.683 228.656 792.282C228.664 793.881 227.41 798.044 223.277 800.303C219.144 802.562 215.004 803.541 209.266 803.569Z" fill="#F8F4F4"/>
<path d="M222.372 790.205C222.4 795.857 217.855 800.461 212.221 800.488C206.587 800.515 201.997 795.955 201.969 790.303C201.94 784.651 206.485 780.047 212.119 780.02C217.753 779.993 222.343 784.552 222.372 790.205Z" fill="#652C08"/>
<path d="M208.961 786.111C208.969 787.701 207.691 788.996 206.106 789.004C204.521 789.012 203.23 787.729 203.222 786.139C203.214 784.549 204.492 783.254 206.077 783.246C207.662 783.239 208.953 784.521 208.961 786.111Z" fill="#F2F1F1"/>
<path d="M192.257 781.263C190.369 786.07 192.216 792.539 194.252 797.564C193.02 791.572 192.599 785.739 194.494 782.212C196.389 778.685 198.917 774.195 205.605 772.884C212.294 771.572 216.614 772.681 223.482 777.595C217.289 771.69 211.643 769.017 204.638 770.649C197.632 772.282 194.146 776.457 192.257 781.263Z" fill="#652C08"/>
<path fill-rule="evenodd" clip-rule="evenodd" d="M202.926 747.506C199.345 748.474 195.914 750.579 191.312 754.378L187.168 749.328C192.013 745.327 196.305 742.521 201.228 741.19C206.179 739.853 211.395 740.104 217.929 741.482L216.589 747.883C210.55 746.609 206.48 746.546 202.926 747.506Z" fill="#652C08"/>
<path d="M268.511 811.405C268.709 814.3 272.769 816.38 277.579 816.049C282.389 815.719 286.128 813.104 285.929 810.209C285.731 807.314 281.671 805.235 276.861 805.565C272.051 805.895 268.313 808.51 268.511 811.405Z" fill="#FF9798" fill-opacity="0.5"/>
<path d="M197.217 809.352C197.181 812.254 201.059 814.656 205.88 814.718C210.701 814.781 214.638 812.478 214.675 809.577C214.711 806.675 210.833 804.272 206.012 804.21C201.191 804.148 197.254 806.45 197.217 809.352Z" fill="#FF9798" fill-opacity="0.5"/>
<path d="M255.517 658.523C255.464 659.752 255.173 660.902 254.644 661.973C254.116 663.03 253.461 663.998 252.678 664.878C251.909 665.759 251.068 666.554 250.154 667.262C249.255 667.957 248.402 668.558 247.594 669.063C248.691 669.207 249.774 669.522 250.843 670.01C251.926 670.485 252.884 671.127 253.718 671.938C254.567 672.735 255.236 673.69 255.726 674.804C256.23 675.904 256.452 677.145 256.393 678.526C256.344 679.659 256.135 680.674 255.765 681.572C255.41 682.456 254.948 683.246 254.38 683.942C253.813 684.623 253.174 685.205 252.463 685.687C251.767 686.169 251.06 686.562 250.344 686.863C249.627 687.165 248.921 687.377 248.226 687.5C247.545 687.638 246.942 687.695 246.419 687.673C245.097 687.617 244.002 687.412 243.135 687.057C242.281 686.702 241.603 686.286 241.099 685.808C240.61 685.317 240.273 684.812 240.089 684.292C239.904 683.772 239.82 683.319 239.837 682.932C239.862 682.338 240.011 681.777 240.282 681.249C240.567 680.708 240.933 680.225 241.379 679.801C241.825 679.377 242.337 679.011 242.916 678.704C243.495 678.382 244.092 678.145 244.705 677.991L245.109 678.693C244.222 679.126 243.555 679.706 243.11 680.435C242.665 681.149 242.427 681.879 242.395 682.625C242.377 683.04 242.441 683.478 242.587 683.941C242.746 684.39 242.99 684.809 243.319 685.196C243.661 685.584 244.088 685.914 244.6 686.185C245.127 686.442 245.748 686.586 246.464 686.616C247.511 686.661 248.497 686.509 249.422 686.16C250.348 685.798 251.156 685.286 251.847 684.623C252.552 683.947 253.111 683.148 253.523 682.224C253.949 681.301 254.186 680.294 254.233 679.203C254.281 678.084 254.089 677.087 253.658 676.211C253.241 675.335 252.659 674.591 251.913 673.978C251.181 673.352 250.319 672.866 249.327 672.52C248.349 672.174 247.323 671.978 246.249 671.933C245.809 671.914 245.374 671.924 244.944 671.961C244.516 671.984 244.107 672.029 243.718 672.096C243.343 672.149 243.003 672.204 242.697 672.26C242.391 672.316 242.155 672.362 241.988 672.396L241.79 672.18L243.818 669.298C243.971 669.263 244.145 669.222 244.34 669.175C244.507 669.14 244.709 669.107 244.945 669.076C245.181 669.03 245.445 669 245.735 668.985C246.413 668.612 247.123 668.137 247.865 667.56C248.622 666.969 249.313 666.286 249.94 665.51C250.581 664.72 251.116 663.83 251.545 662.838C251.988 661.846 252.235 660.757 252.286 659.569C252.372 657.566 251.962 656.034 251.056 654.972C250.151 653.909 248.816 653.341 247.054 653.266C246.035 653.223 245 653.401 243.948 653.799C242.897 654.184 241.87 654.804 240.868 655.661C239.879 656.519 238.935 657.614 238.036 658.945C237.151 660.278 236.359 661.856 235.66 663.681C234.974 665.506 234.401 667.592 233.942 669.939C233.482 672.285 233.19 674.895 233.066 677.768C233.015 678.956 233.016 680.056 233.069 681.068C233.135 682.081 233.256 682.965 233.43 683.72C233.619 684.461 233.863 685.046 234.161 685.473C234.46 685.901 234.823 686.124 235.25 686.142C235.677 686.16 236.027 685.864 236.302 685.252C236.591 684.628 236.819 683.815 236.987 682.812C237.168 681.795 237.3 680.659 237.382 679.404C237.477 678.148 237.553 676.886 237.607 675.615C237.691 673.681 237.741 671.864 237.76 670.163C237.778 668.448 237.782 666.919 237.771 665.576C237.774 664.234 237.767 663.113 237.751 662.213C237.734 661.313 237.726 660.71 237.725 660.406L240.152 659.782C240.216 659.896 240.298 660.231 240.398 660.789C240.498 661.347 240.591 662.084 240.675 663.001C240.761 663.904 240.819 664.958 240.849 666.163C240.895 667.355 240.887 668.641 240.828 670.023C240.727 672.357 240.57 674.405 240.356 676.167C240.157 677.916 239.912 679.434 239.622 680.723C239.332 681.997 239.011 683.056 238.657 683.899C238.317 684.743 237.95 685.412 237.557 685.907C237.177 686.39 236.783 686.726 236.375 686.916C235.98 687.121 235.59 687.215 235.204 687.199C234.364 687.163 233.62 686.841 232.97 686.232C232.334 685.638 231.802 684.861 231.374 683.902C230.947 682.93 230.636 681.83 230.44 680.604C230.245 679.365 230.176 678.096 230.232 676.797C230.312 674.933 230.567 673.013 230.997 671.039C231.427 669.064 232.021 667.145 232.777 665.282C233.534 663.404 234.444 661.637 235.509 659.98C236.574 658.309 237.781 656.866 239.13 655.65C240.48 654.42 241.962 653.466 243.578 652.787C245.208 652.095 246.952 651.788 248.811 651.867C249.871 651.912 250.822 652.097 251.663 652.423C252.518 652.736 253.237 653.182 253.819 653.76C254.402 654.324 254.841 655.007 255.138 655.808C255.434 656.61 255.561 657.514 255.517 658.523Z" fill="#C1A764"/>
<path d="M168.361 1101.71C167.721 1099.16 170.404 1092.67 171.826 1089.75C172.684 1089.28 174.402 1088.62 174.402 1089.75C174.402 1091.16 177.245 1094.23 178.667 1099.93C180.088 1105.64 169.16 1104.9 168.361 1101.71Z" fill="#794320"/>
<path d="M165.907 1088.46C161.929 1091.57 161.425 1096.26 165.909 1097.52C168.038 1097.53 172.866 1096.02 176.533 1096.77C180.2 1097.53 182.61 1100.02 183.558 1094.88C185.22 1085.87 170.879 1084.57 165.907 1088.46Z" fill="#EC4441"/>
<mask id="mask10_338:1056" style="mask-type:alpha" maskUnits="userSpaceOnUse" x="162" y="1086" width="22" height="13">
<path d="M165.911 1088.47C161.935 1091.58 161.431 1096.27 165.911 1097.54C168.04 1097.54 172.865 1096.04 176.53 1096.79C180.194 1097.54 182.603 1100.03 183.55 1094.89C185.213 1085.87 170.881 1084.58 165.911 1088.47Z" fill="#7C8E0E"/>
</mask>
<g mask="url(#mask10_338:1056)">
<ellipse cx="174.984" cy="1085.13" rx="3.89982" ry="3.96188" fill="#FFDBC5"/>
<ellipse cx="181.757" cy="1092.36" rx="4.10507" ry="2.58383" fill="#FFDBC5"/>
<ellipse cx="166.979" cy="1091.5" rx="2.05253" ry="1.37804" fill="#ECC2A7"/>
<ellipse cx="166.979" cy="1091.5" rx="2.05253" ry="1.37804" fill="#FFDBC5"/>
<ellipse cx="171.289" cy="1095.64" rx="3.0788" ry="2.06707" fill="#FFDBC5"/>
</g>
</g>
<defs>
<filter id="filter0_i_338:1056" x="1156.43" y="773.637" width="123.456" height="38.7379" filterUnits="userSpaceOnUse" color-interpolation-filters="sRGB">
<feFlood flood-opacity="0" result="BackgroundImageFix"/>
<feBlend mode="normal" in="SourceGraphic" in2="BackgroundImageFix" result="shape"/>
<feColorMatrix in="SourceAlpha" type="matrix" values="0 0 0 0 0 0 0 0 0 0 0 0 0 0 0 0 0 0 127 0" result="hardAlpha"/>
<feOffset dx="3.59754" dy="7.91458"/>
<feGaussianBlur stdDeviation="1.43901"/>
<feComposite in2="hardAlpha" operator="arithmetic" k2="-1" k3="1"/>
<feColorMatrix type="matrix" values="0 0 0 0 0 0 0 0 0 0 0 0 0 0 0 0 0 0 0.5 0"/>
<feBlend mode="normal" in2="shape" result="effect1_innerShadow_338:1056"/>
</filter>
<filter id="filter1_d_338:1056" x="1292.54" y="780.516" width="16.9609" height="18.4268" filterUnits="userSpaceOnUse" color-interpolation-filters="sRGB">
<feFlood flood-opacity="0" result="BackgroundImageFix"/>
<feColorMatrix in="SourceAlpha" type="matrix" values="0 0 0 0 0 0 0 0 0 0 0 0 0 0 0 0 0 0 127 0" result="hardAlpha"/>
<feOffset dx="2" dy="4"/>
<feColorMatrix type="matrix" values="0 0 0 0 0 0 0 0 0 0 0 0 0 0 0 0 0 0 0.25 0"/>
<feBlend mode="normal" in2="BackgroundImageFix" result="effect1_dropShadow_338:1056"/>
<feBlend mode="normal" in="SourceGraphic" in2="effect1_dropShadow_338:1056" result="shape"/>
</filter>
<filter id="filter2_i_338:1056" x="1179.16" y="865.528" width="98.3714" height="37.8387" filterUnits="userSpaceOnUse" color-interpolation-filters="sRGB">
<feFlood flood-opacity="0" result="BackgroundImageFix"/>
<feBlend mode="normal" in="SourceGraphic" in2="BackgroundImageFix" result="shape"/>
<feColorMatrix in="SourceAlpha" type="matrix" values="0 0 0 0 0 0 0 0 0 0 0 0 0 0 0 0 0 0 127 0" result="hardAlpha"/>
<feOffset dx="3.59754" dy="7.91458"/>
<feGaussianBlur stdDeviation="1.43901"/>
<feComposite in2="hardAlpha" operator="arithmetic" k2="-1" k3="1"/>
<feColorMatrix type="matrix" values="0 0 0 0 0 0 0 0 0 0 0 0 0 0 0 0 0 0 0.5 0"/>
<feBlend mode="normal" in2="shape" result="effect1_innerShadow_338:1056"/>
</filter>
<filter id="filter3_d_338:1056" x="1293.79" y="872.153" width="16.9609" height="18.4268" filterUnits="userSpaceOnUse" color-interpolation-filters="sRGB">
<feFlood flood-opacity="0" result="BackgroundImageFix"/>
<feColorMatrix in="SourceAlpha" type="matrix" values="0 0 0 0 0 0 0 0 0 0 0 0 0 0 0 0 0 0 127 0" result="hardAlpha"/>
<feOffset dx="2" dy="4"/>
<feColorMatrix type="matrix" values="0 0 0 0 0 0 0 0 0 0 0 0 0 0 0 0 0 0 0.25 0"/>
<feBlend mode="normal" in2="BackgroundImageFix" result="effect1_dropShadow_338:1056"/>
<feBlend mode="normal" in="SourceGraphic" in2="effect1_dropShadow_338:1056" result="shape"/>
</filter>
<filter id="filter4_i_338:1056" x="288.308" y="960.779" width="39.3188" height="73.6616" filterUnits="userSpaceOnUse" color-interpolation-filters="sRGB">
<feFlood flood-opacity="0" result="BackgroundImageFix"/>
<feBlend mode="normal" in="SourceGraphic" in2="BackgroundImageFix" result="shape"/>
<feColorMatrix in="SourceAlpha" type="matrix" values="0 0 0 0 0 0 0 0 0 0 0 0 0 0 0 0 0 0 127 0" result="hardAlpha"/>
<feOffset dx="-5" dy="4"/>
<feComposite in2="hardAlpha" operator="arithmetic" k2="-1" k3="1"/>
<feColorMatrix type="matrix" values="0 0 0 0 0.988235 0 0 0 0 0.760784 0 0 0 0 0.615686 0 0 0 1 0"/>
<feBlend mode="normal" in2="shape" result="effect1_innerShadow_338:1056"/>
</filter>
<filter id="filter5_i_338:1056" x="239.567" y="935.906" width="90.6177" height="47.2544" filterUnits="userSpaceOnUse" color-interpolation-filters="sRGB">
<feFlood flood-opacity="0" result="BackgroundImageFix"/>
<feBlend mode="normal" in="SourceGraphic" in2="BackgroundImageFix" result="shape"/>
<feColorMatrix in="SourceAlpha" type="matrix" values="0 0 0 0 0 0 0 0 0 0 0 0 0 0 0 0 0 0 127 0" result="hardAlpha"/>
<feOffset dx="-25" dy="4"/>
<feComposite in2="hardAlpha" operator="arithmetic" k2="-1" k3="1"/>
<feColorMatrix type="matrix" values="0 0 0 0 0.558333 0 0 0 0 0.439429 0 0 0 0 0.130278 0 0 0 1 0"/>
<feBlend mode="normal" in2="shape" result="effect1_innerShadow_338:1056"/>
</filter>
<filter id="filter6_i_338:1056" x="273.601" y="1028.17" width="88.7004" height="71.8208" filterUnits="userSpaceOnUse" color-interpolation-filters="sRGB">
<feFlood flood-opacity="0" result="BackgroundImageFix"/>
<feBlend mode="normal" in="SourceGraphic" in2="BackgroundImageFix" result="shape"/>
<feColorMatrix in="SourceAlpha" type="matrix" values="0 0 0 0 0 0 0 0 0 0 0 0 0 0 0 0 0 0 127 0" result="hardAlpha"/>
<feOffset dx="-43" dy="1"/>
<feComposite in2="hardAlpha" operator="arithmetic" k2="-1" k3="1"/>
<feColorMatrix type="matrix" values="0 0 0 0 0.245833 0 0 0 0 0.164649 0 0 0 0 0.0522396 0 0 0 1 0"/>
<feBlend mode="normal" in2="shape" result="effect1_innerShadow_338:1056"/>
</filter>
<filter id="filter7_i_338:1056" x="274.962" y="1025.09" width="86.4246" height="69.4954" filterUnits="userSpaceOnUse" color-interpolation-filters="sRGB">
<feFlood flood-opacity="0" result="BackgroundImageFix"/>
<feBlend mode="normal" in="SourceGraphic" in2="BackgroundImageFix" result="shape"/>
<feColorMatrix in="SourceAlpha" type="matrix" values="0 0 0 0 0 0 0 0 0 0 0 0 0 0 0 0 0 0 127 0" result="hardAlpha"/>
<feOffset dx="-11"/>
<feComposite in2="hardAlpha" operator="arithmetic" k2="-1" k3="1"/>
<feColorMatrix type="matrix" values="0 0 0 0 0.411765 0 0 0 0 0.345098 0 0 0 0 0.129412 0 0 0 1 0"/>
<feBlend mode="normal" in2="shape" result="effect1_innerShadow_338:1056"/>
</filter>
<filter id="filter8_i_338:1056" x="202.02" y="946.689" width="101.449" height="68.2485" filterUnits="userSpaceOnUse" color-interpolation-filters="sRGB">
<feFlood flood-opacity="0" result="BackgroundImageFix"/>
<feBlend mode="normal" in="SourceGraphic" in2="BackgroundImageFix" result="shape"/>
<feColorMatrix in="SourceAlpha" type="matrix" values="0 0 0 0 0 0 0 0 0 0 0 0 0 0 0 0 0 0 127 0" result="hardAlpha"/>
<feOffset dx="-18" dy="-9"/>
<feComposite in2="hardAlpha" operator="arithmetic" k2="-1" k3="1"/>
<feColorMatrix type="matrix" values="0 0 0 0 0.556863 0 0 0 0 0.439216 0 0 0 0 0.129412 0 0 0 1 0"/>
<feBlend mode="normal" in2="shape" result="effect1_innerShadow_338:1056"/>
</filter>
<filter id="filter9_i_338:1056" x="311.528" y="1012.8" width="87.6125" height="63.3342" filterUnits="userSpaceOnUse" color-interpolation-filters="sRGB">
<feFlood flood-opacity="0" result="BackgroundImageFix"/>
<feBlend mode="normal" in="SourceGraphic" in2="BackgroundImageFix" result="shape"/>
<feColorMatrix in="SourceAlpha" type="matrix" values="0 0 0 0 0 0 0 0 0 0 0 0 0 0 0 0 0 0 127 0" result="hardAlpha"/>
<feOffset dx="-10" dy="-8"/>
<feComposite in2="hardAlpha" operator="arithmetic" k2="-1" k3="1"/>
<feColorMatrix type="matrix" values="0 0 0 0 0 0 0 0 0 0 0 0 0 0 0 0 0 0 0.25 0"/>
<feBlend mode="normal" in2="shape" result="effect1_innerShadow_338:1056"/>
</filter>
<filter id="filter10_i_338:1056" x="312.174" y="1010.36" width="83.0662" height="64.4934" filterUnits="userSpaceOnUse" color-interpolation-filters="sRGB">
<feFlood flood-opacity="0" result="BackgroundImageFix"/>
<feBlend mode="normal" in="SourceGraphic" in2="BackgroundImageFix" result="shape"/>
<feColorMatrix in="SourceAlpha" type="matrix" values="0 0 0 0 0 0 0 0 0 0 0 0 0 0 0 0 0 0 127 0" result="hardAlpha"/>
<feOffset dx="-7" dy="-8"/>
<feComposite in2="hardAlpha" operator="arithmetic" k2="-1" k3="1"/>
<feColorMatrix type="matrix" values="0 0 0 0 0.411765 0 0 0 0 0.345098 0 0 0 0 0.129412 0 0 0 1 0"/>
<feBlend mode="normal" in2="shape" result="effect1_innerShadow_338:1056"/>
</filter>
<filter id="filter11_i_338:1056" x="154.004" y="984.605" width="12.6357" height="14.2759" filterUnits="userSpaceOnUse" color-interpolation-filters="sRGB">
<feFlood flood-opacity="0" result="BackgroundImageFix"/>
<feBlend mode="normal" in="SourceGraphic" in2="BackgroundImageFix" result="shape"/>
<feColorMatrix in="SourceAlpha" type="matrix" values="0 0 0 0 0 0 0 0 0 0 0 0 0 0 0 0 0 0 127 0" result="hardAlpha"/>
<feOffset dx="4" dy="-5"/>
<feComposite in2="hardAlpha" operator="arithmetic" k2="-1" k3="1"/>
<feColorMatrix type="matrix" values="0 0 0 0 0.988235 0 0 0 0 0.760784 0 0 0 0 0.615686 0 0 0 1 0"/>
<feBlend mode="normal" in2="shape" result="effect1_innerShadow_338:1056"/>
</filter>
<filter id="filter12_i_338:1056" x="154.305" y="985.588" width="15.9448" height="18.1257" filterUnits="userSpaceOnUse" color-interpolation-filters="sRGB">
<feFlood flood-opacity="0" result="BackgroundImageFix"/>
<feBlend mode="normal" in="SourceGraphic" in2="BackgroundImageFix" result="shape"/>
<feColorMatrix in="SourceAlpha" type="matrix" values="0 0 0 0 0 0 0 0 0 0 0 0 0 0 0 0 0 0 127 0" result="hardAlpha"/>
<feOffset dx="4" dy="-5"/>
<feComposite in2="hardAlpha" operator="arithmetic" k2="-1" k3="1"/>
<feColorMatrix type="matrix" values="0 0 0 0 0.988235 0 0 0 0 0.760784 0 0 0 0 0.615686 0 0 0 1 0"/>
<feBlend mode="normal" in2="shape" result="effect1_innerShadow_338:1056"/>
</filter>
<filter id="filter13_i_338:1056" x="155.985" y="987.099" width="17.1533" height="21.0894" filterUnits="userSpaceOnUse" color-interpolation-filters="sRGB">
<feFlood flood-opacity="0" result="BackgroundImageFix"/>
<feBlend mode="normal" in="SourceGraphic" in2="BackgroundImageFix" result="shape"/>
<feColorMatrix in="SourceAlpha" type="matrix" values="0 0 0 0 0 0 0 0 0 0 0 0 0 0 0 0 0 0 127 0" result="hardAlpha"/>
<feOffset dx="4" dy="-5"/>
<feComposite in2="hardAlpha" operator="arithmetic" k2="-1" k3="1"/>
<feColorMatrix type="matrix" values="0 0 0 0 0.988235 0 0 0 0 0.760784 0 0 0 0 0.615686 0 0 0 1 0"/>
<feBlend mode="normal" in2="shape" result="effect1_innerShadow_338:1056"/>
</filter>
<linearGradient id="paint0_linear_338:1056" x1="494.4" y1="452.658" x2="494.4" y2="1146.9" gradientUnits="userSpaceOnUse">
<stop stop-color="white"/>
<stop offset="1" stop-color="white" stop-opacity="0"/>
</linearGradient>
</defs>
</svg>
