<svg width="51" height="95" viewBox="0 0 51 95" fill="none" xmlns="http://www.w3.org/2000/svg">
<path fill-rule="evenodd" clip-rule="evenodd" d="M15.4449 27.5504C15.2989 27.5504 15.1532 27.5621 15.0092 27.5853L10.1528 28.3685C8.94092 28.564 8.00751 29.5425 7.86956 30.7623L3.30096 71.1556C3.20031 72.0454 3.54153 72.9282 4.21451 73.5191L3.13126 74.7527L4.21452 73.5191L12.4753 80.772C12.9746 81.2104 13.6163 81.4521 14.2807 81.4521H36.9463C37.6223 81.4521 38.2743 81.2019 38.7768 80.7497L46.8106 73.5198C47.4632 72.9324 47.7944 72.0676 47.7008 71.1945L43.3734 30.808C43.2409 29.5719 42.2918 28.5805 41.0626 28.3942L35.6965 27.5813C35.5608 27.5607 35.4238 27.5504 35.2866 27.5504H15.4449ZM14.4863 24.3438C14.8033 24.2927 15.1238 24.267 15.4449 24.267H35.2866C35.5885 24.267 35.8899 24.2897 36.1884 24.335L41.5545 25.1479C44.2587 25.5577 46.3469 27.7388 46.6383 30.4582L50.9657 70.8448C51.1715 72.7654 50.443 74.6681 49.0072 75.9603L40.9734 83.1902C39.868 84.185 38.4335 84.7354 36.9463 84.7354H14.2807C12.819 84.7354 11.4072 84.2036 10.3088 83.2392L11.284 82.1287L10.3088 83.2392L2.04801 75.9864C0.567447 74.6864 -0.183229 72.7443 0.0381911 70.7866L4.60679 30.3933C4.91028 27.7099 6.96379 25.5571 9.62997 25.1271L14.4863 24.3438Z" fill="#9E1E00"/>
<ellipse cx="25.4916" cy="57.6478" rx="19.1542" ry="19.1529" fill="url(#paint0_radial_338:1628)"/>
<path d="M29.3232 71.8758C29.3232 74.1425 27.4856 75.98 25.2187 75.98C22.9519 75.98 21.1143 74.1425 21.1143 71.8758C21.1143 69.6091 24.9451 66.4036 26.0396 63.6674C27.1341 66.6772 29.3232 69.6091 29.3232 71.8758Z" fill="#F5562A"/>
<path d="M28.2289 72.7375C28.2289 74.3772 26.8813 75.7065 25.2189 75.7065C23.5566 75.7065 22.209 74.3772 22.209 72.7375C22.209 71.0977 25.4196 68.383 26.2222 66.4036C27.0249 68.5809 28.2289 71.0977 28.2289 72.7375Z" fill="#F5982A"/>
<path d="M26.5869 74.1347C26.5869 75.0028 25.9743 75.7065 25.2187 75.7065C24.4631 75.7065 23.8506 75.0028 23.8506 74.1347C23.8506 73.2666 25.3099 71.8294 25.6748 70.7815C26.0396 71.9342 26.5869 73.2666 26.5869 74.1347Z" fill="#FCFF17"/>
<ellipse cx="25.4921" cy="56.0063" rx="17.5124" ry="22.9835" fill="#FFFDB7" fill-opacity="0.46"/>
<mask id="mask0_338:1628" style="mask-type:alpha" maskUnits="userSpaceOnUse" x="7" y="33" width="37" height="46">
<ellipse cx="25.4921" cy="56.0063" rx="17.5124" ry="22.9835" fill="white"/>
</mask>
<g mask="url(#mask0_338:1628)">
<path fill-rule="evenodd" clip-rule="evenodd" d="M26.4914 65.1482C29.9014 67.3256 33.6917 69.3867 38.3193 71.6583L37.8369 72.6408C32.9871 70.26 29.0424 68.1038 25.4911 65.8061C21.9398 68.1038 17.9951 70.26 13.1452 72.6408L12.6629 71.6583C17.2905 69.3867 21.0808 67.3256 24.4907 65.1482C18.8578 61.3815 14.1275 57.1535 8.13135 50.9133L8.52603 49.7133C14.6063 56.0411 19.7506 60.7105 25.4911 64.4988C31.2316 60.7105 36.376 56.0411 42.4563 49.7133L42.8508 50.9133C36.8547 57.1535 32.1244 61.3815 26.4914 65.1482Z" fill="#B52908"/>
</g>
<path d="M7.97974 85.5563V92.6702C21.7428 94.6559 29.5127 94.7349 43.0045 92.6702V85.5563H7.97974Z" fill="#9E1E00"/>
<path d="M17.5568 78.4426L7.97974 85.5566C21.7428 87.5422 29.5127 87.6212 43.0045 85.5566L33.4274 78.4426H17.5568Z" fill="#B52908"/>
<path d="M34.2487 75.9801H16.7363L17.5572 78.4426H33.4278L34.2487 75.9801Z" fill="#D44624"/>
<path fill-rule="evenodd" clip-rule="evenodd" d="M17.3185 1.83089L11.7726 17.7113L17.1315 19.3421H33.8523L39.2111 17.7113L33.6652 1.83089H17.3185ZM39.305 17.9803C39.305 17.9801 39.3049 17.9799 39.3048 17.9797L39.305 17.9803ZM33.8141 19.3537C33.8138 19.3538 33.8136 19.3539 33.8133 19.354L33.8133 19.354L33.8141 19.3537ZM17.1695 19.3537L17.1704 19.354L17.1704 19.354C17.1701 19.3539 17.1698 19.3538 17.1695 19.3537ZM15.8326 1.10625C16.0244 0.557066 16.5425 0.189209 17.1242 0.189209H33.8595C34.4412 0.189209 34.9594 0.557065 35.1511 1.10625L40.855 17.439C41.1113 18.1729 40.7054 18.9725 39.9617 19.1989L34.2914 20.9245C34.1622 20.9638 34.028 20.9838 33.893 20.9838H17.0907C16.9558 20.9838 16.8215 20.9638 16.6924 20.9245L11.022 19.1989C10.2783 18.9725 9.8724 18.1729 10.1287 17.439L15.8326 1.10625Z" fill="#9E1E00"/>
<rect x="16.7363" y="14.4171" width="17.5124" height="9.85006" fill="#B52908"/>
<rect x="14.5471" y="23.72" width="21.8905" height="6.01949" fill="#D44624"/>
<rect x="16.7363" y="29.7393" width="17.5124" height="4.3778" fill="#B52908"/>
<path d="M39.1741 39.5895H11.811L16.1891 33.0228H34.796L39.1741 39.5895Z" fill="#D44624"/>
<ellipse cx="25.4925" cy="14.4171" rx="8.75619" ry="1.64168" fill="#D44624"/>
<defs>
<radialGradient id="paint0_radial_338:1628" cx="0" cy="0" r="1" gradientUnits="userSpaceOnUse" gradientTransform="translate(25.4916 64.7618) rotate(90) scale(24.0779 24.0795)">
<stop stop-color="#FDFF7C"/>
<stop offset="0.672316" stop-color="#FEFFBF" stop-opacity="0"/>
</radialGradient>
</defs>
</svg>
