<svg width="31" height="19" viewBox="0 0 31 19" fill="none" xmlns="http://www.w3.org/2000/svg">
<path d="M1.67262 11.5262C0.669047 12.8673 0.139385 16.8347 0 18.6508C0.0929231 18.7672 0.390277 19 0.836308 19H15.4717C20.2108 18.8836 29.912 18.3993 30.804 17.3935C31.9191 16.1362 28.0163 8.17343 25.6468 5.65887C23.2772 3.14432 19.3745 -0.0687294 14.7051 0.00111945C10.0357 0.0709683 2.92708 9.8498 1.67262 11.5262Z" fill="#758082"/>
<mask id="mask0_12:1213" style="mask-type:alpha" maskUnits="userSpaceOnUse" x="0" y="0" width="31" height="19">
<path d="M1.67262 11.5262C0.669047 12.8673 0.139385 16.8347 0 18.6508C0.0929231 18.7672 0.390277 19 0.836308 19H15.4717C20.2108 18.8836 29.912 18.3993 30.804 17.3935C31.9191 16.1362 28.0163 8.17343 25.6468 5.65887C23.2772 3.14432 19.3745 -0.0687294 14.7051 0.00111945C10.0357 0.0709683 2.92708 9.8498 1.67262 11.5262Z" fill="#758082"/>
</mask>
<g mask="url(#mask0_12:1213)">
<path d="M2.16022 11.8754C1.15665 12.993 0.905762 14.7159 0.905762 15.4377C0.905762 15.7171 1.05908 16.2899 1.67238 16.3457C2.43899 16.4156 4.59946 14.8091 7.10838 14.39C9.61731 13.9709 18.5379 9.91965 19.653 8.38297C20.7681 6.8463 17.6319 3.91265 17.1441 2.65537C16.6562 1.39809 16.4472 1.2584 14.3564 0.979001C12.2656 0.699605 6.27207 6.28751 5.85392 6.986C5.43576 7.68448 3.41469 10.4784 2.16022 11.8754Z" fill="#9FA9AB"/>
<path d="M19.8623 4.96039C19.2151 3.91606 17.725 1.56108 15.9595 -0.417969C17.121 -0.417969 20.2247 1.3981 23.3469 5.86842C26.4691 10.3387 27.2032 15.0885 27.18 16.9045L11.0113 19.2095L0.696879 19C-0.209127 19 6.06319 17.6729 12.893 16.0663C18.4684 12.8533 23.9741 11.596 19.8623 4.96039Z" fill="#566165"/>
<path d="M19.7231 1.88697C18.385 0.489994 16.5637 0.0941838 15.8203 0.0709009L17.7717 -0.906982L24.7409 3.14425L31.989 10.4085L31.292 19.0698L27.5286 17.603C27.1569 16.6716 26.3299 14.2921 25.9954 12.2246C25.5773 9.64019 21.3957 3.63319 19.7231 1.88697Z" fill="#3F4A4C"/>
<path d="M13.799 16.206C16.802 14.9161 21.047 10.9673 21.3258 9.08142C30.1767 17.4633 29.6191 17.7427 27.1102 18.3015C25.1031 18.7485 11.3598 19.2561 5.36621 19.6984C6.66713 19.1862 10.8719 17.4633 13.799 16.206Z" fill="#3F4A4C"/>
</g>
</svg>
