<svg width="329" height="477" viewBox="0 0 329 477" fill="none" xmlns="http://www.w3.org/2000/svg">
<path d="M0.534195 420.437L97.2894 461.242L119.312 417.548L94.0401 356.883C94.0401 356.883 50.8562 349.661 37.4982 352.55C24.1402 355.438 3.58976 379.632 0.534195 420.437Z" fill="#DF8E5A"/>
<path d="M28.3388 432.163L14.7798 426.445C16.2314 419.554 19.116 410.257 22.1812 401.721C23.8923 396.956 25.6541 392.444 27.2443 388.74C28.8429 385.017 30.2448 382.167 31.2331 380.686C32.4619 378.845 33.7993 377.662 35.2298 376.969C36.659 376.277 38.243 376.044 40.014 376.199C43.6042 376.513 47.8448 378.409 52.8128 381.131C53.9061 381.73 55.1542 382.884 56.5009 384.574C57.8385 386.253 59.2328 388.411 60.6323 390.954C63.4307 396.04 66.2175 402.611 68.5932 409.849C73.049 423.424 76.0162 439.212 74.9772 451.832L65.706 447.922C67.4361 443.435 68.3956 438.303 68.2062 432.446C67.9316 423.957 65.2469 413.972 59.0864 402.112C55.2355 394.699 51.7369 389.619 48.5889 386.502C45.4498 383.393 42.6085 382.185 40.0653 382.668C37.4712 383.16 35.257 385.4 33.4914 388.859C31.7572 392.257 30.4721 396.791 29.5878 401.962C28.1146 410.577 27.7036 421.261 28.3388 432.163Z" fill="#FCC29D"/>
<path d="M20.5284 401.128C17.5056 409.545 14.6319 418.77 13.1323 425.75L4.29399 422.023L4.26714 421.973C5.51014 414.253 10.0162 402.689 15.3936 392.34C18.1103 387.112 21.0333 382.226 23.8423 378.334C26.6745 374.41 29.3167 371.604 31.4504 370.409C35.8812 367.927 39.4876 366.664 43.4167 366.752C47.3655 366.84 51.7578 368.295 57.7458 371.499C59.1184 372.233 60.6781 373.596 62.3591 375.541C64.0319 377.477 65.7877 379.945 67.5619 382.841C71.11 388.63 74.7 396.072 77.8241 404.237C84.0828 420.595 88.4122 439.699 86.8921 454.116C86.7979 455.009 86.6884 455.876 86.5645 456.719L76.6773 452.549C77.8833 439.493 74.8162 423.177 70.2616 409.301C67.8603 401.986 65.0332 395.31 62.1708 390.108C60.7398 387.507 59.2919 385.26 57.8743 383.48C56.4659 381.712 55.0458 380.353 53.6564 379.591C48.6942 376.872 44.163 374.799 40.1668 374.449C38.1446 374.272 36.2318 374.532 34.464 375.389C32.6975 376.244 31.1377 377.665 29.7724 379.711C28.6855 381.34 27.2292 384.324 25.6307 388.047C24.0236 391.79 22.249 396.336 20.5284 401.128Z" fill="#FCC29D"/>
<path d="M88.234 457.423C88.3897 456.416 88.5251 455.375 88.6384 454.301C90.2012 439.48 85.7619 420.07 79.4642 403.61C76.3102 395.367 72.675 387.824 69.0591 381.923C67.2512 378.973 65.4403 376.421 63.6876 374.393C61.9431 372.374 60.2185 370.831 58.5741 369.951C52.4941 366.697 47.8117 365.093 43.4555 364.996C39.0797 364.899 35.1507 366.323 30.5921 368.876C28.0983 370.273 25.2674 373.359 22.4183 377.306C19.546 381.285 16.5794 386.249 13.8354 391.53C8.51402 401.771 3.96876 413.321 2.59769 421.307L0.534193 420.437C3.58975 379.632 24.1402 355.438 37.4982 352.55C50.8562 349.661 94.0401 356.883 94.0401 356.883L119.312 417.548L97.2894 461.242L88.234 457.423Z" fill="#FCC29D"/>
<path d="M29.766 432.765C29.0147 421.512 29.3979 410.506 30.8811 401.833C31.7354 396.836 32.9367 392.722 34.4335 389.789C35.8989 386.918 37.6603 385.146 39.7834 384.743C41.9574 384.33 44.5747 385.344 47.6328 388.372C50.6819 391.391 54.1189 396.364 57.9389 403.717C64.0519 415.485 66.6067 425.201 66.8661 433.217C67.043 438.688 66.1526 443.378 64.5692 447.443L58.5065 444.886C58.5326 442.918 58.3956 440.407 58.0955 437.592C57.7033 433.912 57.0258 429.651 56.0354 425.302C54.0583 416.62 50.815 407.505 46.0494 402.005C44.8642 400.637 43.6486 400.141 42.4589 401.21C41.8734 401.736 41.4105 402.55 41.0495 403.463C40.6899 404.373 40.4031 405.451 40.1711 406.628C39.2522 411.291 39.0238 418.431 39.2561 425.856C39.3722 429.568 39.6048 433.386 39.9327 437.053L29.766 432.765Z" fill="#FCC29D"/>
<path d="M46.1654 423.457C45.8959 423.285 45.7131 423.234 45.6048 423.225C45.5769 423.446 45.5644 423.809 45.6047 424.334C45.6532 424.964 45.7694 425.73 45.9549 426.605C46.6919 430.083 48.4482 434.946 50.8346 439.281C51.2419 439.47 51.7192 439.463 52.0512 439.191C52.1952 439.073 52.343 438.882 52.4809 438.502C52.6309 438.087 52.7798 437.412 52.8344 436.363C52.9666 433.822 52.201 431.149 50.8985 428.789C49.6079 426.45 47.8538 424.534 46.1654 423.457Z" fill="#FCC29D"/>
<path fill-rule="evenodd" clip-rule="evenodd" d="M41.4084 437.675C41.0088 433.6 40.7273 429.276 40.5963 425.088C40.3646 417.682 40.609 410.845 41.4479 406.588C41.6554 405.535 41.8883 404.699 42.1342 404.077C42.3788 403.458 42.6071 403.122 42.8041 402.945C43.1792 402.608 43.8931 402.494 45.0458 403.825C49.6315 409.117 52.8024 417.967 54.7507 426.522C55.7231 430.792 56.3862 434.968 56.7686 438.555C57.0031 440.755 57.1295 442.711 57.1605 444.318L41.4084 437.675ZM49.7757 441.047C47.3 436.585 45.4518 431.514 44.6636 427.795C44.466 426.863 44.3303 425.994 44.2711 425.223C44.2141 424.482 44.218 423.719 44.3702 423.036C44.4502 422.676 44.5851 422.277 44.8098 421.923C45.0427 421.555 45.3116 421.331 45.5731 421.221C46.0466 421.024 46.5291 421.187 46.9884 421.48C48.8007 422.635 50.6588 424.669 52.0308 427.155C53.3908 429.62 54.3379 432.647 54.1718 435.841C54.107 437.085 53.9203 438.14 53.6042 439.013C53.276 439.92 52.8272 440.575 52.3299 440.983C51.4069 441.739 50.4751 441.525 49.9476 441.229L49.8443 441.171L49.7757 441.047Z" fill="#FCC29D"/>
<path d="M239.466 306.216C208.778 306.216 56.3543 339.189 38.8033 348.216C26.3066 354.644 -6.18582 379.994 1.03473 420.076C9.67099 316.562 107.782 350.611 97.2896 461.242L288.995 408.521C299.465 358.688 270.153 306.216 239.466 306.216Z" fill="#652C08"/>
<path d="M212.58 354.716C222.197 356.958 251.364 340.892 253.184 324.637C242.643 321.906 233.965 323.765 221.855 322.758L212.58 354.716Z" fill="#74580E"/>
<path d="M250.627 327.418L236.938 321.026C226.245 317.836 236.517 323.229 227.19 330.773L215.999 388.91L223.23 378.091L240.188 376.994L250.627 327.418Z" fill="#FCC29D"/>
<g filter="url(#filter0_i_12:866)">
<path d="M250.627 327.418L237.3 391.438L211.308 391.44L224.302 339.439L226.123 317.779L239.826 319.221C246.598 322.308 250.613 324.029 250.627 327.418Z" fill="#FFD3B7"/>
</g>
<g filter="url(#filter1_i_12:866)">
<path d="M253.185 324.633L206.612 298.995C190.027 288.734 180.218 292.545 162.567 302.245L225.747 340.16C230.801 328.966 242.147 322.109 253.185 324.633Z" fill="#997B2D"/>
</g>
<g filter="url(#filter2_i_12:866)">
<path d="M196.601 435.247C196.601 435.247 208.189 392.513 214.056 387.959C219.923 383.405 223.007 382.791 227.986 398.897L235.082 417.815C234.325 421.781 234.739 423.793 245.864 424.765C260.974 423.221 276.362 430.395 281.544 431.739C284.529 432.514 289.216 442.549 279.296 448.315C269.375 454.081 263.386 455.803 254.768 456.711C246.151 457.619 243.978 456.069 239.601 455.405C235.224 454.741 197.064 439.651 196.601 435.247Z" fill="#5F4725"/>
</g>
<g filter="url(#filter3_i_12:866)">
<path d="M197.962 430.269C197.962 430.269 205.186 394.401 207.122 386.935C211.726 380.861 231.998 378.866 239.474 390.786L235.68 413.819C234.922 417.785 235.337 419.797 246.461 420.768C261.571 419.225 275.92 421.884 279.141 426.164C282.362 430.443 289.107 437.15 279.186 442.916C269.266 448.682 263.277 450.404 254.659 451.312C246.041 452.22 243.869 450.67 239.492 450.006C235.114 449.342 198.426 434.673 197.962 430.269Z" fill="#867643"/>
</g>
<path fill-rule="evenodd" clip-rule="evenodd" d="M235.623 401.757L225.839 405.387L233.615 413.998L226.669 416.575L227.629 419.18L235.618 416.216L236.47 417.16L238.535 415.294L238.427 415.174L239.201 414.887L238.242 412.282L236.424 412.956L230.651 406.563L236.583 404.362L237.699 407.394L240.308 406.427L239.191 403.395L241.744 402.447L240.784 399.842L238.231 400.79L235.872 394.386L233.264 395.354L235.623 401.757Z" fill="#D9D7DA"/>
<path d="M192.532 371.937C202.95 369.48 228.88 345.985 226.469 336.549C215.61 335.747 208.044 337.662 195.949 338.836L192.532 371.937Z" fill="#74580E"/>
<path d="M225.909 339.787L213.024 328.406C203.098 333.504 197.967 334.626 196.453 346.528L235.339 397.571L241.192 395.329L256.923 380.725L225.909 339.787Z" fill="#FCC29D"/>
<path fill-rule="evenodd" clip-rule="evenodd" d="M213.024 328.406L225.909 339.787L256.923 380.725L242.571 394.049L201.551 349.789L201.008 352.507L196.453 346.528C197.796 335.971 201.985 333.895 209.842 330.003C210.842 329.507 211.903 328.982 213.024 328.406Z" fill="#FFD3B7"/>
<g filter="url(#filter4_i_12:866)">
<path d="M125.02 330.773C137.837 352.469 171.564 358.447 192.532 371.937C203.269 344.275 214.636 336.549 226.468 336.549L217.442 330.773L169.426 303.689L125.02 330.773Z" fill="#997B2D"/>
</g>
<path d="M231.47 397.461C239.021 379.778 244.25 371.931 263.201 377.89L271.538 392.464C274.066 395.611 275.867 396.6 283.818 388.758C292.438 376.25 303.764 367.046 309.11 367.367C314.456 367.689 320.188 371.441 323.947 376.111C327.705 380.781 320.391 397.821 318.498 401.509C316.605 405.197 279.535 440.891 279.535 440.891C270.592 448.463 263.823 451.007 259.888 446.82C255.953 442.633 247.148 421.859 247.148 421.859L231.47 397.461Z" fill="#322007"/>
<path d="M234.33 401.598C242.037 383.508 247.352 375.471 266.438 381.457L274.775 396.292C277.309 399.492 279.12 400.492 287.181 392.446C295.94 379.634 309.499 369.191 314.89 369.492C318.92 370.426 319.835 372.407 321.997 373.968C317.243 374.052 302.84 393.629 295.24 403.959C292.957 407.062 291.289 409.33 290.679 409.986C287.961 412.91 273.115 427.666 264.639 434.6C264.639 434.6 260.591 438.156 259.328 441.615C258.914 442.748 258.7 443.997 258.672 445.277C253.816 438.011 250.021 426.423 250.021 426.423L234.33 401.598Z" fill="#4E3410"/>
<g filter="url(#filter5_i_12:866)">
<path d="M266.413 381.715C247.457 375.753 242.179 383.755 234.528 401.766L250.114 426.486C250.114 426.486 251.052 429.358 252.592 433.135L257.602 431.98C264.218 431.695 268.471 429.46 274.166 426.146C281.327 419.453 288.665 412.093 290.49 410.124C291.096 409.471 292.753 407.212 295.019 404.124C302.565 393.839 317.419 374.187 322.14 374.104C321.527 373.66 320.487 372.416 319.974 371.937C318.693 370.742 317.389 370.471 314.53 369.807C309.176 369.507 295.712 379.903 287.014 392.659C279.01 400.67 277.211 399.673 274.694 396.487L266.413 381.715Z" fill="#5F4725"/>
</g>
<path d="M231.47 397.462C239.02 379.779 244.25 371.932 263.2 377.89L271.537 392.464C274.066 395.612 275.866 396.601 283.817 388.758C292.437 376.251 303.763 367.046 309.109 367.368C312.174 367.552 315.366 368.864 318.24 370.83C313.527 370.888 299.346 389.995 291.863 400.077C289.616 403.105 287.972 405.319 287.371 405.958C284.692 408.809 270.046 423.191 261.679 429.942C261.679 429.942 257.683 433.405 256.448 436.787C256.043 437.895 255.837 439.119 255.816 440.372C251.772 432.771 247.147 421.859 247.147 421.859L231.47 397.462Z" fill="#695821"/>
<g filter="url(#filter6_i_12:866)">
<path d="M259.61 431.853C259.61 431.853 234.841 396.544 235.177 389.124C235.514 381.703 247.711 371.241 263.2 377.89L271.537 392.464C274.066 395.612 275.866 396.601 283.817 388.759C292.437 376.251 303.763 367.046 309.109 367.368C312.174 367.552 315.366 368.864 318.24 370.83C313.527 370.888 299.346 389.995 291.863 400.077C289.616 403.105 287.972 405.319 287.371 405.958C286.732 406.639 261.365 430.119 259.61 431.853Z" fill="#867643"/>
</g>
<path fill-rule="evenodd" clip-rule="evenodd" d="M264.12 386.287L260.541 396.09L272.138 395.751L269.597 402.711L272.202 403.669L275.125 395.663L276.395 395.626L276.313 392.844L276.153 392.849L276.436 392.073L273.83 391.115L273.166 392.936L264.556 393.188L266.726 387.245L269.758 388.36L270.712 385.746L267.68 384.631L268.614 382.073L266.009 381.115L265.074 383.673L258.67 381.319L257.716 383.932L264.12 386.287Z" fill="#D9D7DA"/>
<path d="M217.13 250.599L206.011 250.106L198.897 258.91L198.897 265.415C198.897 265.415 210.868 278.375 217.13 275.162C220.702 273.329 262.933 231.468 262.933 231.468L254.629 226.413L217.13 250.599Z" fill="#FCC29D"/>
<path d="M206.011 250.105L217.13 250.598L253.787 225.699L260.044 229.664C240.886 245.661 236.595 249.961 222.637 263.364C214.242 265.309 207.837 264.269 206.5 258.106L201.999 247.548L206.011 250.105Z" fill="#FFD3B7"/>
<path d="M251.646 225.744C251.842 228.19 252.336 229.278 253.835 230.313C253.835 230.313 254.807 230.764 256.599 231.434C258.391 232.104 263.464 233.106 263.464 233.106L263.087 224.238L257.804 220.297C258.324 218.532 259.591 214.024 259.215 213.199C258.839 212.373 258.222 208.577 254.779 209.472C256.322 212.7 254.209 215.665 253.365 217.731C252.522 219.797 251.45 223.298 251.646 225.744Z" fill="#FFD3B7"/>
<path d="M272.042 207.982C267.997 211.156 257.901 218.567 257.901 218.567L254.682 229.687C256.322 231.955 257.491 231.943 261.84 234.01C267.551 233.854 272.601 230.645 272.601 230.645C272.601 230.645 277.103 228.065 278.183 227.47C279.263 226.875 282.454 225.996 284.138 225.469C288.885 224.419 290.47 220.823 283.038 222.844C276.97 223.418 274.012 224.52 274.012 224.52C274.012 224.52 281.55 219.926 284.904 218.912C288.258 217.899 290.44 213.605 282.496 216.322C275.522 218.708 270.268 221.103 270.268 221.103C270.268 221.103 275.745 217.778 281.433 213.9C287.12 210.022 284.199 207.79 279.089 210.863C273.978 213.937 266.103 218.343 266.103 218.343C266.103 218.343 271.297 213.313 275.584 210.132C279.87 206.951 276.086 204.807 272.042 207.982Z" fill="#FFD3B7"/>
<path d="M96.5093 334.543L102.277 262.162L121.411 269.022C121.805 273.018 106.82 339.811 106.82 339.811L96.5093 334.543Z" fill="#FCC29D"/>
<path d="M100.833 262.162L95.776 335.463L102.174 337.336C105.247 312.563 109.761 289.099 113.469 270.104L100.833 262.162Z" fill="#FFD3B7"/>
<path d="M93.6032 335.64C96.8938 334.853 98.4563 335.004 101.068 335.64L104.49 338.963L90.8038 350.141L84.585 341.605C87.7689 338.904 89.9526 337.093 93.6032 335.64Z" fill="#FFD3B7"/>
<g filter="url(#filter7_i_12:866)">
<path d="M77.7406 348.63C78.4837 347.606 84.5853 341.605 84.5853 341.605L89.6396 345.216C89.6396 345.216 80.3499 352.44 79.6068 353.464C78.8637 354.488 78.9847 355.881 78.9847 355.881C78.9847 355.881 78.1726 354.744 77.4295 353.464C76.6864 352.184 76.9974 349.654 77.7406 348.63Z" fill="#FFD3B7"/>
</g>
<g filter="url(#filter8_i_12:866)">
<path d="M79.6063 350.443C80.5394 349.234 87.0713 342.588 87.0713 342.588L93.2495 345.938C93.2495 345.938 82.9908 354.48 82.0577 355.688C81.1245 356.896 79.9173 360.714 79.9173 360.714C79.9173 360.714 78.051 357.693 77.4289 355.276C76.8068 352.86 78.6731 351.651 79.6063 350.443Z" fill="#FFD3B7"/>
</g>
<g filter="url(#filter9_i_12:866)">
<path d="M78.9843 356.787C78.9843 354.37 89.8709 344.099 89.8709 344.099L96.1377 346.299C96.1377 346.299 84.5831 356.484 83.65 358.297C82.7168 360.11 82.7168 361.62 82.7168 363.433C81.1616 369.173 78.9843 359.203 78.9843 356.787Z" fill="#FFD3B7"/>
</g>
<path d="M107.082 352.461C107.289 351.349 109.156 345.504 107.082 338.831L101.152 335.64L92.0482 345.609C88.3963 350.162 83.0928 354.497 82.0146 357.688C80.9364 360.879 79.7571 365.851 82.0146 366.151C84.2721 366.451 86.7937 359.984 87.675 358.558C88.5564 357.132 100.583 347.2 101.152 348.026C101.152 354.698 104.801 361.744 107.082 361.744C109.364 361.744 106.876 353.573 107.082 352.461Z" fill="#FCC29D"/>
<path d="M101.553 336.379C101.553 336.379 96.3338 347.383 95.1527 348.827C93.9717 350.271 91.0703 351.355 89.0153 353.882C86.9603 356.41 85.3152 359.026 84.585 361.104C83.8547 363.183 82.8618 366.534 81.3904 366.338C79.1329 366.038 81.3406 361.768 82.4188 358.577C83.0955 356.574 84.4079 353.419 86.9603 350.744L86.9603 350.744C88.4749 349.157 90.064 347.491 91.424 345.796L100.528 335.827L101.553 336.379Z" fill="#FFD3B7"/>
<path d="M102.636 335.105C101.252 335.297 99.2172 335.196 96.5149 335.124C96.2803 335.115 96.0345 335.109 95.7767 335.105C96.0281 335.111 96.2742 335.117 96.5149 335.124C99.6459 335.243 100.8 335.854 102.275 336.911L102.636 335.105Z" fill="#FCC29D"/>
<path d="M171.033 211.108L171.033 204.385L158.435 194.278L151.036 206.236L162.206 211.108L173.746 221.41L171.033 211.108Z" fill="#FCC29D"/>
<path d="M219.248 248.44C202.28 229.301 192.532 211.607 177.369 206.552L181.564 250.712L197.947 270.467C208.056 255.662 213.772 250.269 219.248 248.44Z" fill="#A6893E"/>
<path d="M121.771 338.177C158.596 298.743 200.836 300.078 209.5 300.078L178.134 209.854C171.586 206.856 171.253 207.207 170.757 208.259L174.192 219.831L153.92 213.81L148.486 203.97C136.882 198.829 130.543 201.034 140.479 209.321C138.596 211.177 135.288 211.49 134.048 213.883C132.359 217.144 125.288 223.087 124.166 227.505C120.757 272.57 117.302 298.87 121.771 338.177Z" fill="#B6984A"/>
<path fill-rule="evenodd" clip-rule="evenodd" d="M134.048 320.661C134.048 291.411 130.218 272.273 125.197 225.143C126.421 223.051 128.404 220.805 130.218 218.753C131.869 216.883 133.38 215.173 134.048 213.883C135.288 211.49 117.36 218.75 119.243 216.893C109.307 208.607 137.244 194.853 148.848 199.993L159.678 219.551L172.314 214.905L170.509 203.663C171.592 204.385 171.953 203.639 177.73 206.621C190.587 220.815 193.244 246.847 209.5 300.078C205.89 298.995 172.587 295.982 134.048 320.661Z" fill="#C1A764"/>
<path d="M128.671 275.95C147.185 228.122 142.824 214.889 133.749 205.971C124.674 197.052 108.645 212.058 93.0668 261.088C104.794 272.356 111.649 272.401 128.671 275.95Z" fill="#A6893E"/>
<path d="M168.188 216.513C160.438 209.135 157.752 205.311 154.077 198.891L145.011 193.552C146.572 198.77 148.422 212.494 162.011 224.283C163.119 222.146 163.857 222.389 168.188 216.513L174.874 222.524C176.299 216.708 176.087 213.642 174.795 206.072C172.732 204.584 171.286 203.703 169.787 203.302C170.863 211.192 170.057 213.976 168.188 216.513Z" fill="#A6893E"/>
<path d="M60.3746 95.6358C141.521 110.525 186.33 113.225 264.733 105.591C221.593 77.0653 202.911 71.5322 170.586 63.5582C132.355 59.4129 108.405 65.8173 60.3746 95.6358Z" fill="#4F5B00"/>
<path d="M251.547 101.09C250.525 114.465 246.924 127.855 239.161 142.282L90.903 140.377C81.0356 115.626 77.3605 100.979 79.6313 87.9959L83.0547 78.2816L187.218 50.24L251.547 101.09Z" fill="#652C08"/>
<path d="M239.307 140.156C237.501 128.212 232.101 136.844 229.626 142.653L225.617 164.518C230.933 161.374 241.113 152.101 239.307 140.156Z" fill="#FCC29D"/>
<path d="M89.6151 139.207C91.4945 127.274 96.8432 135.939 99.2826 141.763L103.16 163.653C97.8617 160.476 87.7357 151.14 89.6151 139.207Z" fill="#FCC29D"/>
<path d="M211.992 189.037C223.185 183.078 223.484 169.435 221.967 132.747C226.35 85.8542 220.416 65.478 188.299 44.314C137.078 42.328 117.342 56.8671 105.478 123.473C102.935 164.742 105.221 174.156 112.092 180.623C125.747 193.949 138.051 198.56 164.057 204.285C182.666 201.114 193.11 199.056 211.992 189.037Z" fill="#FFD3B7"/>
<path d="M196.72 92.814C207.571 114.171 212.836 121.526 220.562 125.303C224.786 158.932 221.641 174.973 216.64 203.896C231.804 152.839 235.37 121.926 236.952 64.5758L102.543 56.0556C94.9003 69.4429 92.5836 79.5088 94.2911 105.057L104.673 203.549C105.134 173.549 102.47 160.415 117.843 111.613L117.815 120.932C126.208 114.655 130.866 109.23 138.906 88.9882C156.208 98.1121 166.191 103.527 173.855 102.468C172.205 100.209 171.365 98.7397 171.307 92.7353C179.535 100.888 185.202 105.265 201.819 111.873C199.358 107.819 198.208 103.885 196.72 92.814Z" fill="#743A15"/>
<path d="M59.9997 95.233C142.024 74.8669 186.863 80.7607 265.861 106.002L248.583 83.6622C240.83 45.5548 238.698 15.8899 167.006 0.342073C110.706 4.93673 95.2308 23.967 80.8124 71.3906L59.9997 95.233Z" fill="#695821"/>
<path d="M80.8108 71.3892C146.952 62.3424 183.432 63.2459 248.584 83.663L246.356 72.3086C182.039 49.9632 147.322 48.408 84.6175 59.6484L80.8108 71.3892Z" fill="#C1A764"/>
<path d="M198.369 162.302C204.107 162.275 210.532 160.115 213.634 154.873L215.191 147.509L215.174 143.992L213.556 139.202L210.025 134.422L202.67 129.979L192.154 130.989L187.39 134.53C187.39 134.53 181.99 138.394 180.098 142.561C178.206 146.728 178.858 149.603 178.866 151.202C178.874 152.801 180.17 156.953 184.326 159.171C188.481 161.39 192.63 162.33 198.369 162.302Z" fill="#F8F4F4"/>
<path d="M184.265 147.018C184.293 152.67 188.884 157.23 194.518 157.203C200.152 157.176 204.696 152.572 204.668 146.92C204.64 141.268 200.049 136.708 194.415 136.735C188.781 136.762 184.237 141.366 184.265 147.018Z" fill="#652C08"/>
<path d="M185.518 142.855C185.526 144.445 186.817 145.728 188.402 145.72C189.987 145.713 191.266 144.418 191.258 142.828C191.25 141.238 189.958 139.955 188.373 139.963C186.789 139.97 185.51 141.265 185.518 142.855Z" fill="#F2F1F1"/>
<path d="M215.153 139.834C217.09 144.622 215.308 151.109 213.322 156.154C214.494 150.149 214.857 144.313 212.927 140.804C210.996 137.295 208.424 132.83 201.722 131.583C195.021 130.336 190.712 131.486 183.894 136.466C190.027 130.502 195.646 127.774 202.668 129.34C209.689 130.905 213.217 135.046 215.153 139.834Z" fill="#652C08"/>
<path fill-rule="evenodd" clip-rule="evenodd" d="M204.144 106.184C207.734 107.117 211.186 109.188 215.825 112.943L219.919 107.852C215.035 103.899 210.715 101.135 205.779 99.8523C200.816 98.5628 195.602 98.8647 189.082 100.306L190.485 106.694C196.512 105.361 200.58 105.258 204.144 106.184Z" fill="#652C08"/>
<path d="M183.917 178.495C176.976 192.959 154.658 192.532 146.3 178.676L183.917 178.495Z" fill="#FC8D8D"/>
<path d="M132.266 160.569C126.528 160.596 120.082 158.498 116.927 153.286L115.296 145.938L115.279 142.42L116.848 137.616L120.331 132.802L127.641 128.289L138.166 129.198L142.966 132.693C142.966 132.693 148.405 136.504 150.338 140.653C152.272 144.801 151.649 147.683 151.657 149.282C151.665 150.881 150.41 155.044 146.277 157.303C142.144 159.562 138.004 160.541 132.266 160.569Z" fill="#F8F4F4"/>
<path d="M145.372 147.205C145.4 152.857 140.856 157.461 135.222 157.488C129.587 157.515 124.997 152.955 124.969 147.303C124.94 141.651 129.485 137.047 135.119 137.02C140.753 136.993 145.344 141.552 145.372 147.205Z" fill="#652C08"/>
<path d="M131.961 143.111C131.969 144.701 130.691 145.996 129.106 146.004C127.521 146.012 126.23 144.729 126.222 143.139C126.214 141.549 127.492 140.254 129.077 140.246C130.662 140.239 131.953 141.521 131.961 143.111Z" fill="#F2F1F1"/>
<path d="M115.258 138.263C113.369 143.07 115.216 149.539 117.252 154.564C116.021 148.572 115.599 142.739 117.494 139.212C119.389 135.685 121.917 131.195 128.605 129.884C135.294 128.572 139.614 129.681 146.482 134.595C140.289 128.69 134.643 126.017 127.638 127.649C120.632 129.282 117.146 133.457 115.258 138.263Z" fill="#652C08"/>
<path fill-rule="evenodd" clip-rule="evenodd" d="M125.926 104.506C122.345 105.474 118.914 107.579 114.312 111.378L110.168 106.328C115.013 102.327 119.305 99.521 124.229 98.1904C129.179 96.8526 134.396 97.1037 140.929 98.4816L139.589 104.883C133.55 103.609 129.48 103.546 125.926 104.506Z" fill="#652C08"/>
<path d="M191.511 168.405C191.71 171.3 195.769 173.38 200.579 173.049C205.389 172.719 209.128 170.104 208.93 167.209C208.731 164.314 204.672 162.235 199.862 162.565C195.052 162.895 191.313 165.51 191.511 168.405Z" fill="#FF9798" fill-opacity="0.5"/>
<path d="M120.217 166.352C120.181 169.254 124.059 171.656 128.88 171.718C133.701 171.781 137.639 169.478 137.675 166.577C137.712 163.675 133.833 161.272 129.012 161.21C124.191 161.148 120.254 163.45 120.217 166.352Z" fill="#FF9798" fill-opacity="0.5"/>
<path d="M178.518 15.5226C178.465 16.7518 178.174 17.9018 177.645 18.9726C177.116 20.0295 176.461 20.9981 175.678 21.8782C174.909 22.7589 174.068 23.5536 173.154 24.2621C172.255 24.9575 171.402 25.5579 170.594 26.0633C171.691 26.2066 172.774 26.5223 173.843 27.0102C174.926 27.485 175.884 28.1275 176.719 28.9376C177.567 29.7345 178.236 30.6899 178.726 31.8038C179.23 32.9044 179.453 34.1453 179.393 35.5265C179.344 36.659 179.135 37.6741 178.765 38.5717C178.41 39.4561 177.948 40.2461 177.38 40.9416C176.813 41.6233 176.174 42.2051 175.464 42.687C174.767 43.1695 174.06 43.5616 173.344 43.8634C172.627 44.1652 171.922 44.3775 171.227 44.5003C170.545 44.6375 169.942 44.695 169.419 44.6729C168.097 44.617 167.003 44.4116 166.135 44.0566C165.281 43.7023 164.603 43.2861 164.099 42.8082C163.61 42.3171 163.273 41.8116 163.089 41.2918C162.904 40.772 162.82 40.3188 162.837 39.9321C162.863 39.3381 163.011 38.7771 163.282 38.2489C163.567 37.7075 163.933 37.2248 164.379 36.8009C164.825 36.377 165.337 36.0112 165.916 35.7036C166.495 35.3822 167.092 35.1445 167.705 34.9906L168.11 35.6926C167.222 36.1255 166.556 36.7062 166.11 37.4346C165.666 38.1491 165.427 38.8793 165.395 39.6251C165.377 40.0395 165.441 40.4781 165.587 40.9409C165.747 41.3904 165.991 41.8089 166.319 42.1964C166.661 42.5845 167.088 42.9139 167.6 43.1846C168.127 43.4421 168.749 43.586 169.465 43.6163C170.511 43.6606 171.497 43.5085 172.422 43.1603C173.348 42.7981 174.157 42.2858 174.847 41.6231C175.552 40.9473 176.111 40.1476 176.523 39.2241C176.949 38.3012 177.186 37.2942 177.233 36.2031C177.281 35.0843 177.09 34.0868 176.658 33.2107C176.241 32.3352 175.659 31.591 174.913 30.9783C174.182 30.3524 173.32 29.8662 172.328 29.5198C171.349 29.174 170.323 28.9784 169.249 28.933C168.809 28.9144 168.374 28.9237 167.945 28.9609C167.516 28.9842 167.107 29.0292 166.718 29.0958C166.343 29.1491 166.003 29.2039 165.697 29.2601C165.391 29.3164 165.155 29.3617 164.988 29.3962L164.79 29.1803L166.818 26.298C166.971 26.263 167.146 26.2219 167.341 26.1748C167.508 26.1404 167.709 26.1074 167.945 26.0758C168.181 26.0305 168.445 26.0001 168.735 25.9847C169.413 25.6121 170.123 25.1371 170.866 24.5597C171.622 23.969 172.314 23.2857 172.94 22.5096C173.581 21.7203 174.116 20.8297 174.545 19.8378C174.988 18.8464 175.235 17.7568 175.286 16.569C175.373 14.5663 174.963 13.0338 174.057 11.9715C173.151 10.9092 171.817 10.3408 170.054 10.2663C169.035 10.2232 168 10.4008 166.948 10.7991C165.897 11.1836 164.87 11.8043 163.868 12.6613C162.879 13.5189 161.935 14.6136 161.037 15.9455C160.152 17.2779 159.359 18.8564 158.66 20.681C157.974 22.5062 157.402 24.5921 156.942 26.9388C156.482 29.2855 156.19 31.8952 156.066 34.7681C156.015 35.9559 156.016 37.056 156.069 38.0684C156.135 39.0813 156.256 39.965 156.43 40.7196C156.619 41.461 156.863 42.0455 157.162 42.4733C157.461 42.901 157.823 43.1239 158.25 43.142C158.677 43.16 159.028 42.8635 159.302 42.2525C159.591 41.6282 159.82 40.8145 159.987 39.8115C160.169 38.7953 160.3 37.6593 160.382 36.4036C160.478 35.1484 160.553 33.8855 160.608 32.6148C160.691 30.6812 160.742 28.8637 160.76 27.1626C160.779 25.4476 160.782 23.9187 160.771 22.5761C160.774 21.234 160.767 20.1129 160.751 19.2128C160.735 18.3127 160.726 17.7104 160.725 17.406L163.152 16.7822C163.216 16.8956 163.299 17.2312 163.399 17.7889C163.499 18.3466 163.591 19.0839 163.676 20.0007C163.761 20.9037 163.819 21.9578 163.85 23.1629C163.895 24.3548 163.888 25.6413 163.828 27.0225C163.727 29.3567 163.57 31.4049 163.356 33.167C163.157 34.9158 162.912 36.4345 162.622 37.7229C162.332 38.9975 162.011 40.0562 161.657 40.8992C161.318 41.7427 160.951 42.4121 160.557 42.9074C160.178 43.3895 159.784 43.7257 159.375 43.916C158.98 44.1207 158.59 44.2149 158.205 44.1986C157.365 44.163 156.62 43.841 155.97 43.2323C155.334 42.6381 154.802 41.8615 154.374 40.9025C153.947 39.9296 153.636 38.8303 153.44 37.6043C153.246 36.3646 153.176 35.0956 153.232 33.7973C153.313 31.9327 153.568 30.0132 153.998 28.0388C154.428 26.0645 155.021 24.1455 155.777 22.2818C156.534 20.4043 157.445 18.6371 158.509 16.9801C159.574 15.3094 160.781 13.8661 162.13 12.6501C163.48 11.4204 164.963 10.466 166.578 9.78718C168.208 9.09508 169.952 8.78834 171.811 8.86697C172.871 8.91181 173.822 9.09731 174.663 9.42346C175.519 9.73639 176.237 10.1819 176.819 10.76C177.402 11.3243 177.842 12.0071 178.138 12.8083C178.435 13.6096 178.561 14.5143 178.518 15.5226Z" fill="#C1A764"/>
<defs>
<filter id="filter0_i_12:866" x="211.308" y="317.779" width="39.3188" height="73.6616" filterUnits="userSpaceOnUse" color-interpolation-filters="sRGB">
<feFlood flood-opacity="0" result="BackgroundImageFix"/>
<feBlend mode="normal" in="SourceGraphic" in2="BackgroundImageFix" result="shape"/>
<feColorMatrix in="SourceAlpha" type="matrix" values="0 0 0 0 0 0 0 0 0 0 0 0 0 0 0 0 0 0 127 0" result="hardAlpha"/>
<feOffset dx="-5" dy="4"/>
<feComposite in2="hardAlpha" operator="arithmetic" k2="-1" k3="1"/>
<feColorMatrix type="matrix" values="0 0 0 0 0.988235 0 0 0 0 0.760784 0 0 0 0 0.615686 0 0 0 1 0"/>
<feBlend mode="normal" in2="shape" result="effect1_innerShadow_12:866"/>
</filter>
<filter id="filter1_i_12:866" x="162.567" y="292.906" width="90.6177" height="47.2544" filterUnits="userSpaceOnUse" color-interpolation-filters="sRGB">
<feFlood flood-opacity="0" result="BackgroundImageFix"/>
<feBlend mode="normal" in="SourceGraphic" in2="BackgroundImageFix" result="shape"/>
<feColorMatrix in="SourceAlpha" type="matrix" values="0 0 0 0 0 0 0 0 0 0 0 0 0 0 0 0 0 0 127 0" result="hardAlpha"/>
<feOffset dx="-25" dy="4"/>
<feComposite in2="hardAlpha" operator="arithmetic" k2="-1" k3="1"/>
<feColorMatrix type="matrix" values="0 0 0 0 0.558333 0 0 0 0 0.439429 0 0 0 0 0.130278 0 0 0 1 0"/>
<feBlend mode="normal" in2="shape" result="effect1_innerShadow_12:866"/>
</filter>
<filter id="filter2_i_12:866" x="196.601" y="385.168" width="88.7002" height="71.8207" filterUnits="userSpaceOnUse" color-interpolation-filters="sRGB">
<feFlood flood-opacity="0" result="BackgroundImageFix"/>
<feBlend mode="normal" in="SourceGraphic" in2="BackgroundImageFix" result="shape"/>
<feColorMatrix in="SourceAlpha" type="matrix" values="0 0 0 0 0 0 0 0 0 0 0 0 0 0 0 0 0 0 127 0" result="hardAlpha"/>
<feOffset dx="-43" dy="1"/>
<feComposite in2="hardAlpha" operator="arithmetic" k2="-1" k3="1"/>
<feColorMatrix type="matrix" values="0 0 0 0 0.245833 0 0 0 0 0.164649 0 0 0 0 0.0522396 0 0 0 1 0"/>
<feBlend mode="normal" in2="shape" result="effect1_innerShadow_12:866"/>
</filter>
<filter id="filter3_i_12:866" x="197.962" y="382.095" width="86.4243" height="69.4955" filterUnits="userSpaceOnUse" color-interpolation-filters="sRGB">
<feFlood flood-opacity="0" result="BackgroundImageFix"/>
<feBlend mode="normal" in="SourceGraphic" in2="BackgroundImageFix" result="shape"/>
<feColorMatrix in="SourceAlpha" type="matrix" values="0 0 0 0 0 0 0 0 0 0 0 0 0 0 0 0 0 0 127 0" result="hardAlpha"/>
<feOffset dx="-11"/>
<feComposite in2="hardAlpha" operator="arithmetic" k2="-1" k3="1"/>
<feColorMatrix type="matrix" values="0 0 0 0 0.411765 0 0 0 0 0.345098 0 0 0 0 0.129412 0 0 0 1 0"/>
<feBlend mode="normal" in2="shape" result="effect1_innerShadow_12:866"/>
</filter>
<filter id="filter4_i_12:866" x="125.02" y="303.689" width="101.449" height="68.2484" filterUnits="userSpaceOnUse" color-interpolation-filters="sRGB">
<feFlood flood-opacity="0" result="BackgroundImageFix"/>
<feBlend mode="normal" in="SourceGraphic" in2="BackgroundImageFix" result="shape"/>
<feColorMatrix in="SourceAlpha" type="matrix" values="0 0 0 0 0 0 0 0 0 0 0 0 0 0 0 0 0 0 127 0" result="hardAlpha"/>
<feOffset dx="-18" dy="-9"/>
<feComposite in2="hardAlpha" operator="arithmetic" k2="-1" k3="1"/>
<feColorMatrix type="matrix" values="0 0 0 0 0.556863 0 0 0 0 0.439216 0 0 0 0 0.129412 0 0 0 1 0"/>
<feBlend mode="normal" in2="shape" result="effect1_innerShadow_12:866"/>
</filter>
<filter id="filter5_i_12:866" x="234.528" y="369.801" width="87.6123" height="63.3344" filterUnits="userSpaceOnUse" color-interpolation-filters="sRGB">
<feFlood flood-opacity="0" result="BackgroundImageFix"/>
<feBlend mode="normal" in="SourceGraphic" in2="BackgroundImageFix" result="shape"/>
<feColorMatrix in="SourceAlpha" type="matrix" values="0 0 0 0 0 0 0 0 0 0 0 0 0 0 0 0 0 0 127 0" result="hardAlpha"/>
<feOffset dx="-10" dy="-8"/>
<feComposite in2="hardAlpha" operator="arithmetic" k2="-1" k3="1"/>
<feColorMatrix type="matrix" values="0 0 0 0 0 0 0 0 0 0 0 0 0 0 0 0 0 0 0.25 0"/>
<feBlend mode="normal" in2="shape" result="effect1_innerShadow_12:866"/>
</filter>
<filter id="filter6_i_12:866" x="235.174" y="367.36" width="83.0659" height="64.4933" filterUnits="userSpaceOnUse" color-interpolation-filters="sRGB">
<feFlood flood-opacity="0" result="BackgroundImageFix"/>
<feBlend mode="normal" in="SourceGraphic" in2="BackgroundImageFix" result="shape"/>
<feColorMatrix in="SourceAlpha" type="matrix" values="0 0 0 0 0 0 0 0 0 0 0 0 0 0 0 0 0 0 127 0" result="hardAlpha"/>
<feOffset dx="-7" dy="-8"/>
<feComposite in2="hardAlpha" operator="arithmetic" k2="-1" k3="1"/>
<feColorMatrix type="matrix" values="0 0 0 0 0.411765 0 0 0 0 0.345098 0 0 0 0 0.129412 0 0 0 1 0"/>
<feBlend mode="normal" in2="shape" result="effect1_innerShadow_12:866"/>
</filter>
<filter id="filter7_i_12:866" x="77.0039" y="341.605" width="12.6357" height="14.2758" filterUnits="userSpaceOnUse" color-interpolation-filters="sRGB">
<feFlood flood-opacity="0" result="BackgroundImageFix"/>
<feBlend mode="normal" in="SourceGraphic" in2="BackgroundImageFix" result="shape"/>
<feColorMatrix in="SourceAlpha" type="matrix" values="0 0 0 0 0 0 0 0 0 0 0 0 0 0 0 0 0 0 127 0" result="hardAlpha"/>
<feOffset dx="4" dy="-5"/>
<feComposite in2="hardAlpha" operator="arithmetic" k2="-1" k3="1"/>
<feColorMatrix type="matrix" values="0 0 0 0 0.988235 0 0 0 0 0.760784 0 0 0 0 0.615686 0 0 0 1 0"/>
<feBlend mode="normal" in2="shape" result="effect1_innerShadow_12:866"/>
</filter>
<filter id="filter8_i_12:866" x="77.3047" y="342.588" width="15.9448" height="18.1257" filterUnits="userSpaceOnUse" color-interpolation-filters="sRGB">
<feFlood flood-opacity="0" result="BackgroundImageFix"/>
<feBlend mode="normal" in="SourceGraphic" in2="BackgroundImageFix" result="shape"/>
<feColorMatrix in="SourceAlpha" type="matrix" values="0 0 0 0 0 0 0 0 0 0 0 0 0 0 0 0 0 0 127 0" result="hardAlpha"/>
<feOffset dx="4" dy="-5"/>
<feComposite in2="hardAlpha" operator="arithmetic" k2="-1" k3="1"/>
<feColorMatrix type="matrix" values="0 0 0 0 0.988235 0 0 0 0 0.760784 0 0 0 0 0.615686 0 0 0 1 0"/>
<feBlend mode="normal" in2="shape" result="effect1_innerShadow_12:866"/>
</filter>
<filter id="filter9_i_12:866" x="78.9844" y="344.099" width="17.1533" height="21.0892" filterUnits="userSpaceOnUse" color-interpolation-filters="sRGB">
<feFlood flood-opacity="0" result="BackgroundImageFix"/>
<feBlend mode="normal" in="SourceGraphic" in2="BackgroundImageFix" result="shape"/>
<feColorMatrix in="SourceAlpha" type="matrix" values="0 0 0 0 0 0 0 0 0 0 0 0 0 0 0 0 0 0 127 0" result="hardAlpha"/>
<feOffset dx="4" dy="-5"/>
<feComposite in2="hardAlpha" operator="arithmetic" k2="-1" k3="1"/>
<feColorMatrix type="matrix" values="0 0 0 0 0.988235 0 0 0 0 0.760784 0 0 0 0 0.615686 0 0 0 1 0"/>
<feBlend mode="normal" in2="shape" result="effect1_innerShadow_12:866"/>
</filter>
</defs>
</svg>
