<svg width="256" height="365" viewBox="0 0 256 365" fill="none" xmlns="http://www.w3.org/2000/svg">
<path d="M202.107 28.8868C207.057 22.4856 217.052 21.9796 221.759 28.7018L224.916 364.129L205.264 364.314L202.107 28.8868Z" fill="#E0A57F"/>
<path fill-rule="evenodd" clip-rule="evenodd" d="M203.422 168.61L223.074 168.425L223.268 188.996C215.704 187.62 205.751 187.436 205.751 187.436L203.613 188.819L203.422 168.61ZM204.159 246.862L205.264 364.314L224.916 364.129L223.379 200.864C214.882 209.81 208.819 226.218 204.159 246.862Z" fill="#E8B798"/>
<path d="M190.639 79.4046L254.054 72.4368L254.041 42.0274L245.638 37.9895L52.993 46.9971L0 80.5425L0.93517 88.9288L58.9157 120.3L254.054 111.29V75.494L190.639 79.4046Z" fill="#C78C67"/>
<path d="M254.054 75.3044L244.942 69.6473L242.183 74.3807L246.475 78.3533L254.054 75.3044Z" fill="#C78C67"/>
<path d="M47.4868 0.633157V0L48.0804 0.316579L48.2783 0.791447L47.4868 0.633157Z" fill="#C78C67"/>
<path d="M185.527 73.371L244.557 66.6342V37.9895L52.5711 46.9419L0 80.5373L58.0497 111.594L244.557 103.62V69.4844L185.527 73.371Z" fill="#E8B798"/>
<mask id="mask0_12:951" style="mask-type:alpha" maskUnits="userSpaceOnUse" x="0" y="40" width="245" height="72">
<path d="M185.527 73.42L244.557 66.7138V40.3638L52.5711 47.111L0 80.5536L58.2792 111.594L244.557 102.578V69.5511L185.527 73.42Z" fill="#ECC2A7"/>
</mask>
<g mask="url(#mask0_12:951)">
<path d="M157.655 51.6059C221.494 60.5097 244.557 51.6059 244.557 51.6059V57.8116C244.557 57.8116 233.118 60.1499 214.298 60.1499C195.479 60.1499 39.5724 49.6273 39.5724 49.6273V40.3638C39.5724 40.3638 93.8168 42.7021 157.655 51.6059Z" fill="#E0A57F"/>
<path d="M153.855 63.8123C208.793 67.9066 254.054 63.8126 254.054 63.8126V70.0915C254.054 70.0915 242.104 72.4575 222.445 72.4575C202.785 72.4575 8.70573 75.1874 8.70573 75.1874L13.388 66.6943C13.388 66.6943 98.9165 59.7179 153.855 63.8123Z" fill="#E0A57F"/>
<path d="M88.1625 78.9223C62.7383 74.7232 26.9092 95.1415 26.9092 95.1415L30.9771 99.7223C30.9771 99.7223 89.9191 80.9583 145.76 87.9568C201.601 94.9554 249.306 98.1365 249.306 98.1365V87.9568C249.306 87.9568 113.587 83.1214 88.1625 78.9223Z" fill="#E0A57F"/>
<path d="M94.2283 96.9038C66.983 98.552 41.9468 108.437 41.9468 108.437L46.0214 110.011C46.0214 110.011 95.9877 97.6035 151.921 100.009C207.854 102.414 255.637 103.507 255.637 103.507V100.009C255.637 100.009 121.474 95.2557 94.2283 96.9038Z" fill="#E0A57F"/>
</g>
<g filter="url(#filter0_i_12:951)">
<path d="M68.7745 94.4972L67.4286 63.9088L84.2427 63.169C87.3459 63.0325 89.737 63.657 91.416 65.0425C93.095 66.428 93.9944 68.4824 94.1142 71.2056C94.1839 72.7888 93.9416 74.132 93.3873 75.2351C92.8647 76.3368 92.1424 77.2251 91.2203 77.9002C92.5408 78.3498 93.6027 79.0486 94.4058 79.9968C95.2393 80.9119 95.6978 82.3194 95.7814 84.2193C95.9082 87.1008 95.1198 89.3722 93.4162 91.0335C91.7126 92.6948 89.2301 93.5971 85.9686 93.7406L68.7745 94.4972ZM76.5628 75.7374L82.3574 75.4824C84.5423 75.3863 85.5916 74.3566 85.5052 72.3934C85.462 71.4118 85.1601 70.6795 84.5995 70.1965C84.0706 69.7122 83.157 69.4986 81.8587 69.5557L76.3015 69.8002L76.5628 75.7374ZM77.0978 87.8967L83.2724 87.6251C84.4757 87.5721 85.3512 87.2798 85.8989 86.7481C86.4465 86.2164 86.6946 85.3647 86.643 84.1931C86.5999 83.2115 86.2821 82.4799 85.6899 81.9983C85.0976 81.5168 84.1365 81.3052 82.8066 81.3638L76.8219 81.6271L77.0978 87.8967Z" fill="#743A15"/>
<path d="M99.5273 93.1441L98.1814 62.5557L121.36 61.5358L121.661 68.3755L107.412 69.0024L107.631 73.9897L120.123 73.44L120.428 80.3747L107.936 80.9243L108.156 85.9115L122.405 85.2846L122.706 92.1242L99.5273 93.1441Z" fill="#743A15"/>
<path d="M132.246 91.7044L131.193 67.7657L122.596 68.144L122.303 61.4943L148.427 60.3449L148.719 66.9946L140.122 67.3728L141.175 91.3116L132.246 91.7044Z" fill="#743A15"/>
<path d="M152.127 90.8297L150.781 60.2413L159.711 59.8484L161.057 90.4368L152.127 90.8297Z" fill="#743A15"/>
<path d="M175.389 90.282C173.331 90.3726 171.377 90.3 169.526 90.0641C167.674 89.7966 166.086 89.3906 164.761 88.8461L164.437 81.484C165.892 82.0863 167.499 82.5549 169.258 82.8899C171.018 83.2249 172.658 83.359 174.178 83.2921C175.761 83.2225 176.943 83.0436 177.723 82.7554C178.534 82.4342 178.918 81.7986 178.877 80.8487C178.847 80.1837 178.587 79.6717 178.095 79.3126C177.635 78.9521 176.907 78.6352 175.912 78.3617C174.948 78.0868 173.68 77.7461 172.107 77.3394C170.02 76.765 168.357 76.1084 167.119 75.3697C165.881 74.6311 164.968 73.7036 164.379 72.5873C163.822 71.4697 163.508 70.0876 163.435 68.441C163.303 65.4328 164.263 63.1063 166.317 61.4613C168.4 59.7833 171.548 58.8517 175.759 58.6664C177.437 58.5926 179.169 58.6591 180.955 58.8661C182.773 59.0716 184.243 59.3242 185.367 59.6238L185.693 67.0334C184.178 66.4972 182.734 66.1324 181.361 65.939C179.989 65.7456 178.701 65.6754 177.497 65.7283C176.104 65.7896 174.922 65.9527 173.95 66.2175C172.978 66.4824 172.512 67.074 172.553 67.9922C172.587 68.7839 173.025 69.3516 173.865 69.6953C174.735 70.006 176.259 70.399 178.438 70.8742C180.969 71.4291 182.904 72.153 184.244 73.0458C185.616 73.9372 186.567 75.0058 187.098 76.2515C187.627 77.4655 187.926 78.8642 187.996 80.4474C188.119 83.2339 187.141 85.5295 185.063 87.3342C182.984 89.1071 179.759 90.0898 175.389 90.282Z" fill="#743A15"/>
</g>
<g filter="url(#filter1_d_12:951)">
<path d="M203.543 72.8238C203.593 76.8073 206.982 79.9945 211.113 79.9426C215.244 79.8907 218.553 76.6194 218.503 72.6359C218.453 68.6524 215.063 65.4652 210.932 65.517C206.801 65.5689 203.493 68.8403 203.543 72.8238Z" fill="#C4C4C4"/>
<path fill-rule="evenodd" clip-rule="evenodd" d="M211.015 72.1155L207.134 68.3302L206.263 69.2227L210.145 73.008L206.36 76.8897L207.252 77.7601L211.037 73.8785L214.919 77.6638L215.79 76.7712L211.908 72.9859L215.693 69.1043L214.801 68.2339L211.015 72.1155Z" fill="#8D8B8B"/>
</g>
<path d="M197.666 171.845L254.054 165.809L254.054 134.942L245.744 130.985L73.5644 137.988L25.2895 171.133L26.0445 179.557L78.1285 211.6L254.054 204.619L254.054 168.579L197.666 171.845Z" fill="#C78C67"/>
<path d="M254.054 168.579L245.744 163.434L244.28 167.444L247.844 171.722L254.054 168.579Z" fill="#C78C67"/>
<path d="M69.8404 91.1348L69.8481 90.4132L70.1021 90.7768L70.1823 91.3189L69.8404 91.1348Z" fill="#C78C67"/>
<path d="M193.81 165.753L245.744 160.269L245.744 130.985L73.3822 137.932L25.2895 171.133L77.6586 202.867L245.744 197.081L245.744 163.435L193.81 165.753Z" fill="#E8B798"/>
<mask id="mask1_12:951" style="mask-type:alpha" maskUnits="userSpaceOnUse" x="25" y="130" width="221" height="73">
<path d="M193.81 165.753L245.744 160.269L245.744 130.985L73.3822 137.932L25.2895 171.133L77.8657 202.995L245.744 197.071L245.744 163.435L193.81 165.753Z" fill="#ECC2A7"/>
</mask>
<g mask="url(#mask1_12:951)">
<path d="M168.553 143.487C226.387 153.085 247.412 144.334 247.412 144.334L247.345 150.59C247.345 150.59 236.939 152.836 219.861 152.653C202.783 152.469 61.4187 140.34 61.4187 140.34L61.5191 131.001C61.5191 131.001 110.718 133.888 168.553 143.487Z" fill="#E0A57F"/>
<path d="M164.713 154.63C214.271 159.37 255.184 155.603 255.184 155.603L255.114 162.055C255.114 162.055 244.298 164.37 226.548 164.179C208.797 163.988 33.5308 164.909 33.5308 164.909L37.8523 156.228C37.8523 156.228 115.154 149.89 164.713 154.63Z" fill="#E0A57F"/>
<path d="M105.657 170.691C82.7613 166.28 50.2145 186.183 50.2145 186.183L53.8362 190.766C53.8362 190.766 107.22 172.728 157.531 180.211C207.843 187.693 250.853 191.311 250.853 191.311L250.962 181.215C250.962 181.215 128.553 175.103 105.657 170.691Z" fill="#E0A57F"/>
<path d="M110.542 187.846C85.9796 189.241 63.3187 198.946 63.3187 198.946L66.9723 200.57C66.9723 200.57 112.119 188.567 162.48 191.53C212.842 194.492 255.876 196.055 255.876 196.055L255.914 192.534C255.914 192.534 135.103 186.452 110.542 187.846Z" fill="#E0A57F"/>
</g>
<g filter="url(#filter2_d_12:951)">
<path d="M204.789 164.46C204.84 168.444 208.229 171.631 212.36 171.579C216.491 171.527 219.799 168.256 219.749 164.272C219.699 160.289 216.31 157.102 212.179 157.154C208.048 157.205 204.739 160.477 204.789 164.46Z" fill="#C4C4C4"/>
<path fill-rule="evenodd" clip-rule="evenodd" d="M212.261 163.752L208.38 159.967L207.509 160.859L211.391 164.644L207.606 168.526L208.498 169.396L212.284 165.515L216.165 169.3L217.036 168.408L213.154 164.622L216.939 160.741L216.047 159.87L212.261 163.752Z" fill="#8D8B8B"/>
</g>
<g filter="url(#filter3_i_12:951)">
<path d="M83.2693 186.415L83.1024 182.33C83.9206 180.615 84.9358 179.067 86.1483 177.685C87.3607 176.303 88.7143 174.884 90.2092 173.427C91.4598 172.202 92.4654 171.193 93.2261 170.401C94.0184 169.607 94.591 168.87 94.9439 168.189C95.3271 167.476 95.5006 166.676 95.4644 165.789C95.3725 163.54 93.854 162.476 90.9087 162.597C89.5469 162.652 88.2233 162.865 86.9378 163.235C85.684 163.603 84.4967 164.048 83.376 164.57L83.0655 156.969C84.3432 156.41 85.8472 155.952 87.5773 155.595C89.3062 155.208 91.0574 154.977 92.8309 154.905C96.6312 154.75 99.5024 155.536 101.445 157.265C103.386 158.962 104.418 161.315 104.54 164.324C104.599 165.749 104.475 166.991 104.169 168.05C103.894 169.077 103.425 170.032 102.764 170.915C102.102 171.799 101.237 172.754 100.169 173.781C99.2217 174.676 98.2908 175.571 97.3756 176.465C96.4605 177.359 95.7347 178.229 95.1983 179.076L105.412 178.658L105.691 185.499L83.2693 186.415Z" fill="#743A15"/>
<path d="M122.739 185.278C119.223 185.422 116.365 184.936 114.162 183.82C111.99 182.672 110.365 180.946 109.287 178.643C108.21 176.339 107.602 173.493 107.463 170.105C107.325 166.716 107.699 163.83 108.585 161.446C109.471 159.063 110.95 157.226 113.023 155.936C115.126 154.613 117.935 153.879 121.45 153.736C126.707 153.521 130.516 154.729 132.875 157.361C135.234 159.961 136.517 163.81 136.726 168.909C136.933 173.976 135.967 177.917 133.83 180.733C131.693 183.548 127.996 185.063 122.739 185.278ZM122.428 177.678C124.487 177.593 125.884 176.854 126.62 175.46C127.387 174.033 127.715 171.974 127.605 169.282C127.494 166.558 126.998 164.532 126.119 163.204C125.272 161.875 123.819 161.252 121.761 161.336C119.702 161.42 118.289 162.16 117.521 163.556C116.785 164.95 116.473 167.008 116.584 169.732C116.694 172.424 117.173 174.45 118.022 175.811C118.901 177.14 120.37 177.762 122.428 177.678Z" fill="#743A15"/>
<path d="M139.726 184.108L139.56 180.023C140.378 178.308 141.393 176.76 142.605 175.378C143.818 173.996 145.171 172.577 146.666 171.12C147.917 169.895 148.923 168.887 149.683 168.094C150.476 167.3 151.048 166.563 151.401 165.883C151.784 165.169 151.958 164.369 151.922 163.482C151.83 161.234 150.311 160.17 147.366 160.29C146.004 160.346 144.68 160.558 143.395 160.928C142.141 161.297 140.954 161.742 139.833 162.263L139.523 154.663C140.8 154.103 142.304 153.645 144.034 153.289C145.763 152.901 147.515 152.671 149.288 152.598C153.088 152.443 155.96 153.23 157.902 154.959C159.843 156.656 160.875 159.009 160.998 162.017C161.056 163.442 160.932 164.684 160.626 165.744C160.351 166.77 159.883 167.725 159.221 168.609C158.559 169.492 157.694 170.447 156.626 171.474C155.679 172.37 154.748 173.264 153.833 174.158C152.918 175.052 152.192 175.922 151.655 176.769L161.869 176.352L162.148 183.192L139.726 184.108Z" fill="#743A15"/>
<path d="M167.261 183.192L167.094 179.107C167.913 177.392 168.928 175.844 170.14 174.462C171.353 173.08 172.706 171.661 174.201 170.204C175.452 168.979 176.457 167.97 177.218 167.178C178.01 166.384 178.583 165.647 178.936 164.967C179.319 164.253 179.493 163.453 179.456 162.566C179.365 160.318 177.846 159.253 174.901 159.374C173.539 159.429 172.215 159.642 170.93 160.012C169.676 160.38 168.489 160.825 167.368 161.347L167.058 153.746C168.335 153.187 169.839 152.729 171.569 152.372C173.298 151.985 175.049 151.754 176.823 151.682C180.623 151.527 183.495 152.313 185.437 154.042C187.378 155.739 188.41 158.092 188.533 161.101C188.591 162.526 188.467 163.768 188.161 164.828C187.886 165.854 187.418 166.809 186.756 167.692C186.094 168.576 185.229 169.531 184.161 170.558C183.214 171.453 182.283 172.348 181.368 173.242C180.453 174.136 179.727 175.006 179.19 175.853L189.404 175.435L189.683 182.276L167.261 183.192Z" fill="#743A15"/>
</g>
<defs>
<filter id="filter0_i_12:951" x="67.4287" y="58.6373" width="123.456" height="38.7379" filterUnits="userSpaceOnUse" color-interpolation-filters="sRGB">
<feFlood flood-opacity="0" result="BackgroundImageFix"/>
<feBlend mode="normal" in="SourceGraphic" in2="BackgroundImageFix" result="shape"/>
<feColorMatrix in="SourceAlpha" type="matrix" values="0 0 0 0 0 0 0 0 0 0 0 0 0 0 0 0 0 0 127 0" result="hardAlpha"/>
<feOffset dx="3.59754" dy="7.91458"/>
<feGaussianBlur stdDeviation="1.43901"/>
<feComposite in2="hardAlpha" operator="arithmetic" k2="-1" k3="1"/>
<feColorMatrix type="matrix" values="0 0 0 0 0 0 0 0 0 0 0 0 0 0 0 0 0 0 0.5 0"/>
<feBlend mode="normal" in2="shape" result="effect1_innerShadow_12:951"/>
</filter>
<filter id="filter1_d_12:951" x="203.542" y="65.5165" width="16.9609" height="18.4268" filterUnits="userSpaceOnUse" color-interpolation-filters="sRGB">
<feFlood flood-opacity="0" result="BackgroundImageFix"/>
<feColorMatrix in="SourceAlpha" type="matrix" values="0 0 0 0 0 0 0 0 0 0 0 0 0 0 0 0 0 0 127 0" result="hardAlpha"/>
<feOffset dx="2" dy="4"/>
<feColorMatrix type="matrix" values="0 0 0 0 0 0 0 0 0 0 0 0 0 0 0 0 0 0 0.25 0"/>
<feBlend mode="normal" in2="BackgroundImageFix" result="effect1_dropShadow_12:951"/>
<feBlend mode="normal" in="SourceGraphic" in2="effect1_dropShadow_12:951" result="shape"/>
</filter>
<filter id="filter2_d_12:951" x="204.789" y="157.153" width="16.9609" height="18.4268" filterUnits="userSpaceOnUse" color-interpolation-filters="sRGB">
<feFlood flood-opacity="0" result="BackgroundImageFix"/>
<feColorMatrix in="SourceAlpha" type="matrix" values="0 0 0 0 0 0 0 0 0 0 0 0 0 0 0 0 0 0 127 0" result="hardAlpha"/>
<feOffset dx="2" dy="4"/>
<feColorMatrix type="matrix" values="0 0 0 0 0 0 0 0 0 0 0 0 0 0 0 0 0 0 0.25 0"/>
<feBlend mode="normal" in2="BackgroundImageFix" result="effect1_dropShadow_12:951"/>
<feBlend mode="normal" in="SourceGraphic" in2="effect1_dropShadow_12:951" result="shape"/>
</filter>
<filter id="filter3_i_12:951" x="83.0654" y="151.663" width="109.496" height="37.6301" filterUnits="userSpaceOnUse" color-interpolation-filters="sRGB">
<feFlood flood-opacity="0" result="BackgroundImageFix"/>
<feBlend mode="normal" in="SourceGraphic" in2="BackgroundImageFix" result="shape"/>
<feColorMatrix in="SourceAlpha" type="matrix" values="0 0 0 0 0 0 0 0 0 0 0 0 0 0 0 0 0 0 127 0" result="hardAlpha"/>
<feOffset dx="3.59754" dy="7.91458"/>
<feGaussianBlur stdDeviation="1.43901"/>
<feComposite in2="hardAlpha" operator="arithmetic" k2="-1" k3="1"/>
<feColorMatrix type="matrix" values="0 0 0 0 0 0 0 0 0 0 0 0 0 0 0 0 0 0 0.5 0"/>
<feBlend mode="normal" in2="shape" result="effect1_innerShadow_12:951"/>
</filter>
</defs>
</svg>
