<svg width="118" height="132" viewBox="0 0 118 132" fill="none" xmlns="http://www.w3.org/2000/svg">
<path d="M45.8984 71.0298C40.9127 77.3351 39.4914 80.0342 40.0091 85.754C43.3762 88.9724 47.4736 91.4159 52.5204 93.1691C55.3017 86.7115 58.3223 85.0856 63.9009 80.0124C59.6209 86.3405 57.0575 88.3109 56.782 94.4303C64.6688 96.3976 74.5763 97.0269 87.1269 96.5584C83.7036 85.1202 78.2284 74.9082 73.2998 69.2515C69.2287 71.1067 67.8413 73.4293 66.3842 76.3821C65.9317 72.8672 67.635 71.247 70.7853 67.5654C65.0422 62.3219 60.1472 60.332 52.0913 59.2958C48.6991 62.1076 48.5178 65.8575 47.2737 68.2745C46.8373 65.9296 46.3893 62.1292 49.2977 58.999C43.0491 58.4664 34.5746 61.1078 26.7802 61.5931C28.9064 71.1086 32.4463 76.4985 36.7667 82.1308C37.3455 78.0709 39.4978 76.1959 45.8984 71.0298Z" fill="#7C8E0E"/>
<path fill-rule="evenodd" clip-rule="evenodd" d="M30.6979 65.0809L30.6978 65.0809L30.691 65.0781C29.5913 64.6295 28.4702 64.1722 27.3268 63.7051C27.1392 62.991 26.9602 62.2526 26.7902 61.4877C27.6684 61.4313 28.5553 61.3472 29.4466 61.2433C30.4226 61.6416 31.3831 62.0333 32.3285 62.4187C58.3894 73.0445 72.9653 78.9875 85.9375 92.9595C86.3544 94.1764 86.7504 95.4121 87.1223 96.6624C86.44 96.689 85.7655 96.7124 85.0987 96.7324C74.7606 84.9536 63.6919 78.9211 45.676 71.2674C45.7507 71.1714 45.8262 71.0746 45.9026 70.9769C45.7976 71.0626 45.6938 71.1474 45.5911 71.2314C41.0917 69.3209 36.1595 67.3089 30.6979 65.0809Z" fill="#5B6A00"/>
<path d="M55.3611 34.0096C45.4328 37.7434 42.0032 39.8779 38.7964 47.057C40.5311 53.4107 43.621 59.3938 48.2624 65.2718C55.7554 59.699 60.3118 60.0415 70.103 58.2163C60.9716 62.5081 56.7124 62.9185 52.3273 69.9751C60.094 78.244 71.0751 86.4448 85.8271 95.3309C89.4923 79.1779 89.9813 62.9366 88.071 52.5139C82.1535 51.6532 79.0132 53.3665 75.3737 55.7754C77.1896 51.2625 80.2266 50.6208 86.2988 48.6207C83.1766 38.0756 78.8673 32.0309 70.2871 24.7401C64.5148 25.5258 61.8133 29.8406 58.7751 31.7738C59.8318 28.6619 61.8428 23.8136 67.2701 22.2861C60.4346 16.9528 48.9279 13.7125 39.6371 8.42452C35.7578 21.3194 36.2476 30.3807 37.4744 40.3168C40.8393 35.9331 44.5623 35.3266 55.3611 34.0096Z" fill="#97AB1E"/>
<path fill-rule="evenodd" clip-rule="evenodd" d="M54.5273 34.1017C50.5788 28.4794 46.1966 22.4121 41.3447 15.6945C40.3977 14.3834 39.4328 13.0475 38.4498 11.6853C38.7243 10.6268 39.0292 9.54277 39.3669 8.4302C40.5432 9.09154 41.7545 9.72076 42.9873 10.326C43.7899 11.4376 44.581 12.5324 45.3605 13.6113C68.4489 45.5655 81.4501 63.559 87.2846 89.5809C86.9349 91.4905 86.5413 93.4088 86.1025 95.326C85.2132 94.7968 84.3375 94.27 83.4752 93.7455C80.931 80.6304 76.6616 69.7929 70.1414 58.2354C70.1574 58.228 70.1734 58.2205 70.1895 58.213C70.1711 58.2164 70.1528 58.2198 70.1345 58.2232C65.9433 50.7956 60.8225 43.0702 54.6325 34.2514C54.8436 34.1719 55.0577 34.0916 55.2749 34.0106C55.0219 34.0414 54.7727 34.0717 54.5273 34.1017Z" fill="#5B6A00"/>
</svg>
