<svg width="33" height="26" viewBox="0 0 33 26" fill="none" xmlns="http://www.w3.org/2000/svg">
<mask id="mask0_0:1916" style="mask-type:alpha" maskUnits="userSpaceOnUse" x="0" y="0" width="33" height="26">
<path d="M28.9714 0H4.03538C1.80943 0 0 1.80943 0 4.03538V21.0782C0 23.3041 1.80943 25.1136 4.03538 25.1136H28.9646C31.1905 25.1136 33 23.3041 33 21.0782V4.04221C33.0068 1.81626 31.1974 0 28.9714 0ZM31.1632 21.0782C31.1632 22.2868 30.18 23.27 28.9714 23.27H4.03538C2.82681 23.27 1.84357 22.2868 1.84357 21.0782V4.04221C1.84357 2.83364 2.82681 1.8504 4.03538 1.8504H28.9646C30.1732 1.8504 31.1564 2.83364 31.1564 4.04221V21.0782H31.1632Z" fill="black"/>
<path d="M20.8119 12.3454L28.8826 5.10767C29.2582 4.76627 29.2923 4.18588 28.9509 3.80351C28.6095 3.42797 28.0291 3.39383 27.6467 3.73523L16.517 13.7247L14.3457 11.7855C14.3389 11.7787 14.332 11.7718 14.332 11.765C14.2842 11.7172 14.2365 11.6763 14.1818 11.6353L5.34633 3.7284C4.96396 3.387 4.38357 3.42114 4.04217 3.80351C3.70077 4.18588 3.73491 4.76627 4.11728 5.10767L12.2836 12.4069L4.15142 20.0201C3.7827 20.3684 3.76222 20.9488 4.11045 21.3243C4.29481 21.5155 4.54062 21.6179 4.78643 21.6179C5.01175 21.6179 5.23708 21.536 5.41461 21.3721L13.6697 13.6496L15.9093 15.6502C16.0869 15.8072 16.3054 15.8823 16.5238 15.8823C16.7423 15.8823 16.9677 15.8004 17.1384 15.6434L19.4394 13.5813L27.6467 21.3789C27.8243 21.5496 28.0564 21.6316 28.2818 21.6316C28.5276 21.6316 28.7665 21.536 28.9509 21.3448C29.2991 20.9761 29.2855 20.3889 28.9168 20.0406L20.8119 12.3454Z" fill="black"/>
</mask>
<g mask="url(#mask0_0:1916)">
<rect x="-4.58337" y="-5.5" width="45.8333" height="36.6667" fill="black"/>
</g>
</svg>
